<svg width="36.47708" height="54.719819" xmlns="http://www.w3.org/2000/svg" xmlns:xlink="http://www.w3.org/1999/xlink">
 <defs>
  <linearGradient id="linearGradient3338">
   <stop stop-color="#000333" id="stop3334" offset="0"/>
   <stop stop-color="#3c3fae" id="stop3336" offset="1"/>
  </linearGradient>
  <linearGradient id="linearGradient3280">
   <stop stop-color="#c16d40" id="stop3276" offset="0"/>
   <stop stop-color="#f6aa7d" id="stop3278" offset="1"/>
  </linearGradient>
  <linearGradient id="linearGradient3106">
   <stop stop-color="#91498f" id="stop3102" offset="0"/>
   <stop stop-color="#743073" id="stop3104" offset="1"/>
  </linearGradient>
  <radialGradient gradientUnits="userSpaceOnUse" gradientTransform="matrix(1,0,0,0.82762492,0,39.202592)" r="84.348442" fy="227.4261" fx="-30.106422" cy="227.4261" cx="-30.106422" id="radialGradient3244" xlink:href="#linearGradient3106"/>
  <radialGradient gradientUnits="userSpaceOnUse" gradientTransform="matrix(1,0,0,0.50199165,0,83.801931)" r="105.6001" fy="168.27415" fx="192.53088" cy="168.27415" cx="192.53088" id="radialGradient3252" xlink:href="#linearGradient3106"/>
  <radialGradient gradientUnits="userSpaceOnUse" gradientTransform="matrix(1,0,0,0.73408692,0,-79.983125)" r="147.41534" fy="-300.78674" fx="65.966644" cy="-300.78674" cx="65.966644" id="radialGradient3302" xlink:href="#linearGradient3280"/>
  <radialGradient gradientUnits="userSpaceOnUse" gradientTransform="matrix(1,0,0,0.97447795,0,-7.2725677)" r="31.72694" fy="-284.95236" fx="139.58571" cy="-284.95236" cx="139.58571" id="radialGradient3312" xlink:href="#linearGradient3280"/>
  <radialGradient gradientUnits="userSpaceOnUse" gradientTransform="matrix(1,0,0,0.64529198,0,-133.87343)" r="39.508739" fy="-377.41867" fx="173.31322" cy="-377.41867" cx="173.31322" id="radialGradient3322" xlink:href="#linearGradient3280"/>
  <radialGradient gradientUnits="userSpaceOnUse" gradientTransform="matrix(1,0,0,1.0022919,0,0.00101608)" r="170.50002" fy="-0.443334" fx="92.827469" cy="-0.443334" cx="92.827469" id="radialGradient3340" xlink:href="#linearGradient3338"/>
  <linearGradient y2="0.5" x2="1" y1="0.5" x1="0" id="linearGradient3356" xlink:href="#linearGradient3338"/>
  <linearGradient y2="0.5" x2="1" y1="0.5" x1="0" id="linearGradient3358" xlink:href="#linearGradient3338"/>
  <radialGradient gradientUnits="userSpaceOnUse" gradientTransform="matrix(1,0,0,0.53125972,0,-65.107767)" r="185.43736" fy="-138.89944" fx="56.261429" cy="-138.89944" cx="56.261429" id="radialGradient3377" xlink:href="#linearGradient3280"/>
  <radialGradient gradientUnits="userSpaceOnUse" gradientTransform="matrix(1,0,0,0.53909311,0,-93.101656)" r="79.442772" fy="-201.99667" fx="257.68185" cy="-201.99667" cx="257.68185" id="radialGradient3385" xlink:href="#linearGradient3280"/>
 </defs>
 <metadata id="metadata2483">image/svg+xml</metadata>
 <g>
  <title>background</title>
  <rect fill="none" id="canvas_background" height="56.719819" width="38.47708" y="-1" x="-1"/>
 </g>
 <g>
  <title>Layer 1</title>
  <g id="layer1">
   <g transform="matrix(0.29051704,0,0,0.29051704,23.772824,43.821063) " id="g3079"/>
   <g transform="matrix(0.29051704,0,0,0.29051704,24.07701,59.975292) " id="g3195">
    <g id="g3401">
     <path fill="#f9f9f9" stroke-width="1.349831" stroke-linecap="round" stroke-linejoin="bevel" stroke-miterlimit="4" stroke-opacity="0.917647" d="m-45.770507,-125.453084c-2.127729,0.063235 -4.26371,0.416915 -6.262952,1.159285c-0.705469,0.3117 -1.434851,0.594654 -2.089436,1.004387c-0.20515,0.284205 0.2154,0.477692 0.364871,0.669396c0.923978,0.864616 1.89602,1.704001 2.577153,2.785623c0.877671,1.34343 1.614091,2.832074 1.840077,4.438187c0.340191,2.971099 -0.804519,5.993696 -2.798471,8.176199c-1.183791,1.310584 -2.732945,2.262643 -4.41556,2.787325c-1.358863,0.465913 -2.83718,0.720524 -4.29551,0.653709c-0.361376,0.096935 -0.094988,0.517059 -0.091887,0.769758c0.298373,2.033447 1.034394,4.011274 2.240058,5.683335c1.371796,1.938922 3.245234,3.550714 5.463577,4.4362c0.976839,0.404082 1.991746,0.718026 3.027783,0.928923c-0.26956,-0.037581 -0.714232,0.098949 -0.600922,0.4518c0.251624,0.580059 0.653187,1.080953 1.05143,1.566624c-0.802624,-0.295788 -1.505402,-0.886185 -1.83156,-1.689171c-0.401918,-0.748863 -1.316585,-0.91363 -2.037157,-1.210387c-1.627291,-0.621718 -3.14149,-1.557721 -4.36385,-2.805263c-0.4636,-0.410027 -0.874937,-0.907447 -1.421053,-1.208654c-0.328745,-0.080484 -0.345977,0.342286 -0.342633,0.562443c-0.029723,1.61395 0.14633,3.267628 0.84255,4.743458c1.067205,2.415535 3.354843,4.218077 5.936192,4.744143c1.091732,0.236903 2.183196,0.485296 3.283712,0.675526c1.741818,0.164007 3.500374,0.033091 5.232572,-0.179242c1.859211,-0.264827 3.679544,-0.89757 5.273855,-1.894586c2.23252,-1.471131 3.738205,-3.89418 4.324477,-6.479902c0.081817,-0.285589 0.152548,-0.585856 0.264022,-0.856951c0.32271,0.238472 0.627999,-0.160205 0.8235,-0.37687c1.074772,-1.344758 1.910747,-2.863876 2.695115,-4.391046c0.748731,-1.47256 1.309116,-3.067979 1.37994,-4.731406c0.183705,-2.408235 -0.152254,-4.849831 -0.962287,-7.123972c-0.299606,-0.829172 -0.671232,-1.631418 -1.095632,-2.403877c0.811334,1.00742 1.329828,2.205405 2.07776,3.254139c0.09253,0.210312 0.447363,0.254249 0.478007,-0.017441c0.048469,-0.89081 0.025413,-1.80285 -0.265081,-2.656012c-0.673576,-2.46752 -2.037181,-4.726673 -3.871987,-6.504741c-3.248631,-3.247438 -7.858352,-5.000323 -12.430673,-4.960937zm1.300308,8.102772c1.367528,0.016563 2.738543,0.271322 3.940604,0.924269c-1.029565,-0.175358 -2.03372,-0.584734 -3.096525,-0.687462c-0.628153,-0.085849 -1.261353,-0.129135 -1.894496,-0.156525c0.347755,-0.052546 0.698656,-0.080314 1.050417,-0.080283zm-0.062659,5.054507c1.562211,0.219001 3.113918,0.74595 4.477628,1.545466c0.117578,0.08794 0.339807,0.205949 0.35338,0.342294c-1.049356,-0.421989 -2.022184,-1.024221 -3.104115,-1.37156c-0.561033,-0.198848 -1.186783,-0.37157 -1.726893,-0.516199zm-1.713902,5.560015c1.116028,0.658093 2.139021,1.491517 2.968625,2.479455c0.072075,0.093935 0.211929,0.276828 0.21898,0.329345c-1.072999,-0.954349 -2.057059,-2.03154 -3.254692,-2.845803l0.04137,0.02282l0.025717,0.014182z" id="path3389"/>
     <path fill="#f9f9f9" stroke-width="1.349831" stroke-linecap="round" stroke-linejoin="bevel" stroke-miterlimit="4" stroke-opacity="0.917647" d="m-54.702594,-122.728538c-0.275635,0.004596 -0.286213,0.344019 -0.167764,0.523409c0.430898,1.232297 1.160592,2.355749 1.228238,3.685913c0.076814,0.975315 0.092945,1.982261 -0.056936,2.957923c-0.827352,3.093315 -3.165491,5.724538 -6.116579,6.955803c-1.270175,0.536099 -2.649762,0.83099 -4.029903,0.781659c-1.258694,0.001587 -2.53954,-0.078708 -3.741375,-0.493533c-0.228441,-0.080013 -0.664284,-0.084513 -0.632296,0.261887c0.191445,0.483338 0.643215,0.807667 1.002337,1.165765c1.942767,1.751317 4.576072,2.704613 7.190684,2.585945c1.363091,-0.002686 2.757998,-0.116385 4.018304,-0.677976c2.294586,-0.924735 4.275682,-2.66324 5.354508,-4.904094c1.079161,-2.166959 1.246105,-4.737322 0.541509,-7.04547c-0.460666,-1.605365 -1.308116,-3.11069 -2.537881,-4.252751c-0.596403,-0.550712 -1.17752,-1.16106 -1.914427,-1.521502c-0.044527,-0.014729 -0.091297,-0.024622 -0.138419,-0.022976z" id="path3391"/>
     <path fill="#f9f9f9" stroke-width="1.349831" stroke-linecap="round" stroke-linejoin="bevel" stroke-miterlimit="4" stroke-opacity="0.917647" d="m17.078461,-145.255033c-0.32952,-0.022675 -0.455242,0.362461 -0.335343,0.620578c0.404733,1.115798 1.017447,2.148239 1.462897,3.243882c1.974575,4.615304 3.034297,9.567767 3.59936,14.540407c0.571204,5.119777 0.529415,10.290704 -0.065712,15.40247c-0.044537,0.630751 -0.192871,1.253326 -0.222012,1.883177c0.065506,0.39815 0.571878,0.319529 0.865558,0.327147c2.518227,-0.135083 5.106924,-0.834911 7.063822,-2.490544c1.865985,-1.613509 2.768214,-4.181721 2.572194,-6.613752c-0.103531,-0.966626 -0.398703,-1.979694 -1.093695,-2.688929c-0.216442,-0.200657 -0.528196,-0.020503 -0.603213,0.228663c-0.522864,1.015428 -1.192726,1.941052 -1.874091,2.853542c-0.444008,0.586084 -0.667501,1.319257 -0.74186,2.030164c-0.101796,0.485759 -0.255934,0.960554 -0.452723,1.416026c-0.014314,-0.473572 0.14568,-0.970005 0.01651,-1.435589c-0.138811,-0.318132 -0.545163,-0.213662 -0.742757,-0.01615c-0.308525,0.23585 -0.595693,0.498105 -0.898985,0.740542c1.194686,-1.302067 2.490436,-2.531663 3.440269,-4.037314c1.256043,-1.908672 2.063276,-4.103616 2.338649,-6.372127c0.36604,-2.836344 0.178247,-5.795804 -0.911458,-8.463714c-0.563163,-1.511162 -1.336564,-2.950702 -2.389481,-4.179057c-1.77007,-2.107314 -3.959349,-3.852796 -6.356427,-5.196335c-1.409499,-0.764791 -2.895838,-1.409663 -4.460978,-1.775283c-0.069511,-0.011536 -0.139967,-0.0195 -0.210532,-0.017806l0.000008,0.000003z" id="path3393"/>
     <path fill="#f9f9f9" stroke-width="1.349831" stroke-linecap="round" stroke-linejoin="bevel" stroke-miterlimit="4" stroke-opacity="0.917647" d="m18.825402,-147.898837c-1.049957,0.030345 -2.126178,0.028869 -3.140636,0.332483c-0.364691,0.074779 -0.563248,0.469871 -0.437311,0.811228c0.214783,0.75039 1.041593,1.017426 1.714182,1.19843c1.524691,0.368909 3.028066,0.840277 4.427077,1.565635c2.51346,1.272185 4.854919,2.924059 6.757807,5.011759c0.573132,0.585946 0.955688,1.32896 1.534898,1.906402c0.197728,0.24102 0.570309,0.144272 0.692465,-0.120978c0.357055,-0.736206 0.318376,-1.589005 0.351676,-2.387637c0.039097,-2.056974 -1.116309,-3.953552 -2.633652,-5.265274c-2.525239,-2.206284 -5.973622,-3.074956 -9.266507,-3.052048z" id="path3395"/>
    </g>
    <path fill="#0b0606" stroke-width="0.264583" id="path3199" d="m-60.151201,-18.212095c-0.0672,-0.06327 -0.71757,-0.17187 -1.44517,-0.24135c-4.7615,-0.45465 -10.18093,-3.18718 -13.33123,-6.72175c-3.63913,-4.083 -4.8172,-9.00945 -3.56459,-14.90631c1.16143,-5.46762 5.69745,-10.78525 12.00103,-14.06895c2.54911,-1.32791 7.45456,-2.78483 9.07027,-2.69388c0.44429,0.025 0.44608,-0.01326 0.0311,-0.6673c-0.2421,-0.3816 -0.64146,-0.93195 -0.88745,-1.22299c-1.84984,-2.18856 -4.87576,-8.41235 -6.59522,-13.56518c-2.82112,-8.45428 -4.04285,-16.9603 -4.11019,-28.61634l-0.0435,-7.52111l-1.44453,-1.0665c-0.79449,-0.58658 -1.92077,-1.54922 -2.50286,-2.13922c-0.58208,-0.58999 -1.66519,-1.60713 -2.4069,-2.26031c-0.74172,-0.65317 -2.36127,-2.43775 -3.59899,-3.96571c-1.84421,-2.27667 -2.40073,-3.18754 -3.0832,-5.04627c-1.31312,-3.57638 -1.03855,-6.75771 0.83425,-9.66619c1.21444,-1.88604 4.50787,-4.76936 8.38714,-7.34276c7.88868,-5.23314 10.37805,-7.2992 12.64706,-10.49645c2.72123,-3.83447 4.83413,-8.52212 4.88598,-10.84c0.0155,-0.69451 -0.27003,-2.00284 -0.68532,-3.13984c-0.98882,-2.70721 -1.38395,-6.192 -1.02483,-9.03828c0.3292,-2.60914 1.58348,-8.65238 1.93061,-9.30188c0.51502,-0.96364 0.27705,-1.4435 -0.88632,-1.78722c-0.61846,-0.18273 -2.19604,-0.84847 -3.50573,-1.47943c-2.283,-1.09987 -2.42674,-1.22162 -3.48381,-2.9508c-1.28212,-2.09733 -4.86836,-5.75551 -6.4955,-6.62582c-0.86662,-0.46353 -0.98921,-0.60173 -0.53378,-0.60173c0.32517,0 0.59167,0.0893 0.59221,0.19844c0.00056,0.10914 0.52884,0.41549 1.17398,0.68078c1.42336,0.5853 4.67806,3.895 5.99062,6.09186c0.83508,1.39767 1.10647,1.61788 3.55003,2.88047c1.45521,0.75191 3.77693,1.76253 5.15938,2.24584c2.24079,0.78337 2.37013,0.92151 0.41862,0.44709c-0.8136,-0.19779 -0.97702,0.10412 -1.88264,3.47813c-0.38834,1.44678 -0.92531,3.40442 -1.19327,4.35031c-0.55533,1.96026 -0.63819,4.47697 -0.24948,7.57705c0.33361,2.66056 0.83456,4.08765 2.4834,7.07462c2.0728,3.75497 5.36163,6.62347 9.81641,8.56183c5.49561,2.39123 6.97996,2.81788 11.772,3.38369c6.15411,0.72663 9.53154,0.49512 15.79663,-1.08281c5.67277,-1.42874 10.87416,-4.25709 15.19667,-8.26348c1.07192,-0.99353 2.72286,-2.26941 3.66874,-2.83529c2.20409,-1.3186 4.48168,-3.6003 5.27798,-5.28749c1.42831,-3.02631 0.93831,-7.48193 -1.12474,-10.22737c-1.66289,-2.21292 -2.83434,-3.05988 -6.28487,-4.54402c-1.46256,-0.62907 -1.4719,-0.64042 -1.80281,-2.19089c-1.5536,-7.27932 -3.27222,-10.75403 -7.22539,-14.60837c-4.21433,-4.10898 -8.56312,-6.41746 -13.83838,-7.34587c-2.72493,-0.47957 -7.74726,-0.47934 -10.23424,0.00046c-4.69733,0.90624 -9.39138,3.3013 -12.75318,6.50708l-1.8584,1.77215l0.84493,1.02506c1.22844,1.4903 1.03517,1.62854 -0.27954,0.19994c-2.92402,-3.17731 -6.86132,-4.07547 -11.26429,-2.56956c-3.51037,1.20062 -6.43081,1.88605 -6.68541,1.94659c-2.38117,0.56618 2.55761,-1.05374 2.74362,-1.05374c0.18601,0 1.16827,-0.39676 2.18281,-0.8817c2.76297,-1.32065 4.92611,-1.69085 7.18873,-1.2303c1.66025,0.33795 2.97215,0.86246 4.10611,1.64169l0.71897,0.49405l2.08504,-1.79781c6.69506,-5.77274 15.37665,-8.08054 23.76211,-6.31661c2.4977,0.52541 4.07036,1.07338 6.59087,2.29651c1.16929,0.56742 2.22961,1.03167 2.35628,1.03167c0.12667,0 0.59874,-0.27479 1.04904,-0.61064c3.1674,-2.36238 6.87341,-2.54562 11.30306,-0.55889c1.10972,0.49772 2.15152,0.90495 2.31511,0.90495c0.16358,0 2.97012,1.11562 2.97012,1.25418c0,0.25182 -2.98459,-0.83491 -7.03832,-2.18452c-2.8788,-0.95844 -5.86176,-0.8608 -8.14139,0.26651c-0.83974,0.41526 -1.64395,0.89618 -1.78713,1.06871c-0.1867,0.22496 0.31102,0.7513 1.75967,1.86088c2.45273,1.87863 4.61996,4.3485 6.46492,7.36766l1.38234,2.26212l1.74829,-0.92203c1.4683,-0.77435 1.9165,-1.18665 2.79849,-2.57433c2.05085,-3.22665 6.17653,-6.82908 7.79419,-6.80566c0.22882,0.003 0.0325,0.19512 -0.43624,0.42623c-1.05854,0.52191 -3.45582,2.60297 -4.83761,4.19951c-1.28763,1.48774 -2.64449,3.4413 -2.64449,3.80745c0,0.22046 -3.20588,2.18022 -4.05148,2.47667c-0.11826,0.0415 0.0225,0.6294 0.31271,1.30653c0.29026,0.67713 0.79381,2.31604 1.119,3.64203l0.59126,2.41088l2.08638,1.08546c5.86936,3.05357 8.62419,9.12878 6.57956,14.50982c-0.51751,1.36199 -1.83308,3.3844 -2.98694,4.5918c-0.40965,0.42866 -0.70484,0.81936 -0.65598,0.86822c0.0489,0.04886 1.15126,-0.14164 2.44977,-0.42333c6.96946,-1.51191 18.3066,-1.61446 24.58593,-0.22238c3.51114,0.77838 7.78348,4.17598 9.41276,7.48552c0.7853,1.59517 0.87978,2.02765 0.88845,4.06717c0.0082,1.93063 -0.09908,2.51558 -0.69647,3.79727c-0.91201,1.95668 -2.03138,3.33264 -3.91511,4.81259c-1.40456,1.10348 -4.92452,3.06504 -5.50013,3.06504c-0.13764,0 -0.44947,0.81969 -0.69297,1.82154c-0.4005,1.64779 -0.4043,1.91909 -0.03986,2.84427c1.17988,2.99527 1.43254,7.81408 0.5721,10.91115c-0.34364,1.2369 -0.34571,1.49699 -0.0159,2.00035c0.54435,0.83079 1.17206,3.03711 1.17174,4.11852c-0.00053,1.4402 -0.68205,3.65549 -1.47827,4.80443c-1.61373,2.32861 -4.0399,3.58236 -7.48857,3.86977c-2.16898,0.18076 -2.27528,0.21932 -2.34543,0.8508c-0.12876,1.1592 -1.15808,5.35106 -1.85162,7.54062c-0.64153,2.02538 -1.04385,2.99446 -2.96575,7.14375c-0.47182,1.01865 -1.56481,3.45943 -2.42887,5.42396c-0.86405,1.96453 -1.73424,3.92906 -1.93373,4.36563c-0.1995,0.43656 -1.09163,2.46062 -1.98252,4.49791c-1.44109,3.2955 -2.72457,5.70335 -5.73309,10.75551c-0.48967,0.8223 -0.89031,1.56036 -0.89031,1.64014c0,0.07978 0.38695,-0.01656 0.85989,-0.21408c1.379,-0.57594 4.89991,-1.22372 7.47448,-1.37515c5.95716,-0.3504 12.87999,1.94048 16.482,5.45415c4.5482,4.43667 4.5681,10.13284 0.05295,15.16131c-5.13737,5.72146 -13.97981,9.08888 -24.47244,9.31971c-13.40198,0.29483 -25.27353,-4.94428 -29.06771,-12.82805c-1.66652,-3.46279 -0.76166,-7.25494 2.37916,-9.97075c2.74686,-2.37516 3.27773,-2.93803 3.13118,-3.31995c-0.0794,-0.20701 -0.0185,-0.70765 0.13546,-1.11255c0.2509,-0.65991 0.18224,-0.84425 -0.6628,-1.77962c-0.51849,-0.5739 -1.07078,-1.32455 -1.22732,-1.66811l-0.28461,-0.62466l-0.96001,0.5324c-3.20637,1.77819 -7.83986,6.06372 -9.95996,9.21199c-0.63697,0.94589 -1.57703,2.31511 -2.08901,3.04271c-0.51198,0.72761 -0.93509,1.50849 -0.94023,1.7353c-0.005,0.22681 0.33837,1.36515 0.76336,2.52966c1.39774,3.8299 2.04563,8.38493 1.97126,13.859c-0.026,1.91251 -0.1979,3.02025 -0.71898,4.63261c-0.59697,1.84721 -2.3564,5.21642 -3.19755,6.12312c-3.42073,3.68733 -5.27715,5.18912 -8.23346,6.66066c-3.28843,1.63685 -4.02337,1.89946 -7.13044,2.54794c-2.56751,0.53587 -7.73345,0.90808 -8.07983,0.58216l0.00008,0zm8.77274,-1.85539c8.79514,-2.25098 15.42069,-8.29334 17.20372,-15.68942c0.57346,-2.37877 0.5841,-2.6325 0.27031,-6.44615c-0.35945,-4.36849 -0.65148,-6.26767 -1.30114,-8.46178c-0.66948,-2.26103 -0.73327,-2.28423 -2.31224,-0.84114c-4.11589,3.76169 -13.0002,3.92003 -17.56341,0.31301c-1.37249,-1.08489 -2.41411,-2.84849 -2.41411,-4.08741l0,-0.7443l-1.38906,0.1832c-0.76399,0.10076 -2.25725,0.47412 -3.31837,0.82969c-6.50452,2.17957 -11.50141,6.30526 -14.07735,11.62299c-2.05591,4.24419 -2.4089,7.61182 -1.19803,11.42957c2.12751,6.70788 8.03643,11.24775 16.41093,12.60866c1.93068,0.31374 7.17908,-0.07461 9.68875,-0.71692zm8.83209,-22.68822c-5.89543,-2.57136 -8.272,-3.01952 -15.875,-2.99358c-3.34698,0.01143 -6.85933,0.09518 -7.80521,0.18615c-1.30818,0.12581 -1.52982,0.10341 -0.92604,-0.09355c4.05104,-1.32154 11.64715,-1.56978 16.64976,-0.5441c3.26701,0.66983 6.41212,1.80476 8.67244,3.1295c1.4417,0.84496 1.79859,1.14729 1.33457,1.13055c-0.10914,-0.0039 -1.03188,-0.37068 -2.05052,-0.81497zm53.8427,2.68853c11.05153,-2.33412 18.00542,-7.44075 19.35097,-14.21051c0.42945,-2.16065 0.02551,-3.96171 -1.36629,-6.09179c-1.7667,-2.70385 -5.39022,-4.96277 -9.99466,-6.23072c-2.76552,-0.76156 -9.36839,-0.8365 -11.95877,-0.13572c-2.54993,0.68983 -4.7625,1.54794 -4.7625,1.84706c0,0.14494 0.35132,0.66366 0.78071,1.1527c0.42938,0.48905 0.86069,1.31558 0.95846,1.83674c0.13876,0.73964 0.27225,0.90849 0.60836,0.76948c1.48549,-0.61437 4.53722,-1.67256 5.2906,-1.83453c1.57485,-0.33857 0.81772,0.43562 -1.03918,1.06258c-2.12274,0.71673 -5.14011,2.15808 -7.3927,3.53139c-3.49953,2.13351 -6.23398,3.89353 -7.40015,4.76306l-1.1988,0.89387l0.92604,-0.99711c0.50932,-0.5484 1.34276,-1.39995 1.85208,-1.89232l0.92604,-0.89522l-0.79375,0.19892c-0.43656,0.1094 -2.40109,0.1907 -4.36562,0.18066c-3.97977,-0.02035 -6.10018,-0.41775 -8.82789,-1.65455c-1.85181,-0.83965 -2.56572,-1.43406 -3.20338,-2.66716c-0.22975,-0.4443 -0.54802,-0.80782 -0.70727,-0.80782c-0.50881,0 -2.50767,2.29329 -3.10329,3.5604c-1.33955,2.84979 -0.93659,4.99768 1.55895,8.30951c3.73359,4.95485 10.30771,8.23155 19.44225,9.69048c3.56463,0.56934 10.83327,0.37809 14.41979,-0.3794zm-54.9802,-9.83595c2.01402,-0.42609 4.62105,-1.66953 5.52158,-2.63355c1.05413,-1.12845 0.97389,-1.41523 -0.22486,-0.80368c-2.14562,1.09462 -4.0302,1.47049 -7.33422,1.46279c-4.32894,-0.01008 -7.41601,-0.97207 -9.77982,-3.04752c-1.09817,-0.96421 -1.25092,-0.56967 -0.41432,1.0702c1.59939,3.13507 7.33422,4.98786 12.23164,3.95176zm2.71753,-3.71919c2.80082,-0.86792 4.9401,-2.53495 6.22101,-4.84773c2.24839,-4.05965 7.14189,-8.80594 12.175,-11.80874c2.98144,-1.77877 8.80158,-4.21642 9.17515,-3.84284c0.23478,0.23478 -2.17999,1.69526 -4.41265,2.66881c-1.23693,0.53937 -2.40268,1.13044 -2.59056,1.3135c-0.54071,0.52682 -0.002,1.52091 1.50888,2.78618c1.44763,1.21203 1.64972,1.60705 0.82214,1.60705c-0.34232,0 -0.58337,0.23605 -0.69492,0.68049c-0.13461,0.53632 0.004,0.86129 0.65642,1.53395c0.89585,0.92428 1.05919,1.48973 0.43033,1.48973c-1.22281,0 0.48088,1.66558 2.57529,2.51768c0.77977,0.31725 2.39186,0.735 3.58242,0.92834c2.52699,0.41038 5.55222,0.08798 7.9975,-0.85227c1.5167,-0.58321 3.175,-1.65879 3.175,-2.05934c0,-0.12783 0.45797,-0.92544 1.0177,-1.77248c0.55974,-0.84703 1.39509,-2.33499 1.85633,-3.30656c0.46124,-0.97158 1.7945,-3.47108 2.96281,-5.55445c2.8016,-4.99593 3.80413,-7.08369 9.50726,-19.79884c0.5548,-1.23693 1.09476,-2.54661 1.19991,-2.91042c0.10516,-0.3638 0.70458,-1.86975 1.33205,-3.34654c2.25711,-5.31227 3.81245,-13.99042 3.8176,-21.30062c0.0052,-7.44543 -1.43649,-15.30552 -3.86174,-21.05364l-1.00925,-2.39203l-0.87071,0.41521c-0.47889,0.22837 -0.87071,0.50735 -0.87071,0.61995c0,0.1126 0.52086,1.2514 1.15747,2.53068c1.63101,3.27754 1.92583,4.18009 1.52369,4.66463c-0.17762,0.21403 -1.06191,0.51957 -1.96508,0.67899c-0.90317,0.15942 -2.36467,0.51047 -3.24779,0.78012c-0.88312,0.26965 -1.97834,0.43558 -2.43382,0.36873c-0.75722,-0.11114 -0.94177,-0.35707 -2.15498,-2.87164c-0.81071,-1.68033 -1.48137,-2.75009 -1.72412,-2.75009c-0.21852,0 -0.90747,0.16498 -1.53102,0.36662c-2.63999,0.85371 -7.9025,2.18497 -11.12175,2.81347c-1.03516,0.2021 -1.52135,0.42249 -1.52135,0.68963c0,0.21594 0.33887,1.18977 0.75304,2.16406c0.41417,0.97429 0.91106,2.38921 1.1042,3.14427c0.45477,1.77795 0.15624,2.19904 -1.55901,2.19904c-0.67346,0 -2.05786,0.18271 -3.07645,0.40602c-4.86713,1.06704 -4.71767,1.13398 -6.22303,-2.78727c-0.80883,-2.1069 -1.68717,-3.94539 -1.89089,-3.95791c-0.0971,-0.006 -0.31013,0.61218 -0.47343,1.37364c-0.57096,2.6623 -1.9053,5.91278 -3.03834,7.40143c-0.29978,0.39387 -1.07313,1.40591 -1.71856,2.24896c-1.0178,1.32944 -2.90736,3.13659 -4.98312,4.76578l-0.60039,0.47122l0.58284,1.45521c0.53189,1.32802 0.58436,1.92927 0.60038,6.87917c0.0162,4.99533 -0.0309,5.5686 -0.59561,7.2543c-0.71887,2.14593 -1.70816,3.70151 -3.63153,5.71028c-1.07406,1.12175 -1.43472,1.71257 -1.57391,2.5783c-0.0993,0.6177 -0.28927,1.19028 -0.42213,1.27239c-0.13286,0.08211 -0.24156,0.37079 -0.24156,0.64152c0,0.6801 -2.46833,3.31896 -3.87627,4.14407c-4.29674,2.51805 -10.48461,2.82943 -15.0182,0.75572c-1.81035,-0.82808 -1.91009,-0.90026 -3.65463,-2.64512c-1.98809,-1.98847 -2.42824,-3.15382 -2.39521,-6.34163c0.0202,-1.95384 -0.0828,-2.84536 -0.39746,-3.43958c-0.23362,-0.44117 -0.61663,-1.68501 -0.85112,-2.7641l-0.42634,-1.96197l-1.30862,-0.44638c-2.12821,-0.72593 -2.61741,-0.96461 -3.50092,-1.70803c-0.46176,-0.38854 -0.96106,-0.63136 -1.10956,-0.53958c-0.6236,0.3854 -0.16434,13.82281 0.65119,19.05335c1.18744,7.61587 2.05004,11.1467 4.16925,17.06562c1.46432,4.08981 4.59636,9.93375 6.1643,11.50169c0.44728,0.44728 0.89722,0.98918 0.99987,1.20421c0.9373,1.96356 2.09233,2.82341 5.20789,3.87694c2.46053,0.83204 7.03076,0.85044 9.64982,0.03884l0,0.00001zm37.23027,-3.79154c2.13411,-0.43996 5.2789,-1.86145 6.38408,-2.88569c0.90575,-0.83942 0.90067,-1.66725 -0.017,-2.76641l-0.72777,-0.87175l-1.08065,1.80779c-0.62821,1.05092 -1.51433,2.11088 -2.1165,2.53173c-3.14562,2.19841 -9.8913,2.6557 -14.20866,0.9632c-1.67356,-0.65606 -2.22297,-0.62761 -0.75377,0.03903c1.18458,0.53752 3.52074,1.19706 4.93075,1.39206c1.91357,0.26464 5.81024,0.15684 7.58947,-0.20996l0.00005,0zm-14.57045,-2.95494c-0.45332,-0.54997 -0.82423,-1.23475 -0.82423,-1.52174c0,-0.3793 -0.0794,-0.44237 -0.29087,-0.23093c-0.41405,0.41405 -0.083,1.23282 0.87857,2.17294c1.11331,1.08847 1.26217,0.82399 0.23653,-0.42027zm-24.71695,-26.39056c3.2241,-0.89282 5.06314,-2.15972 6.58403,-4.53569c0.47161,-0.73677 0.99422,-1.86786 1.16134,-2.51354c0.54665,-2.11204 0.58097,-2.19227 0.79187,-1.85102c0.33912,0.54871 3.29179,-4.27823 4.09299,-6.69111c1.20345,-3.62428 0.49332,-8.81112 -1.70802,-12.47558l-0.79471,-1.32291l0.90576,1.00882c0.49817,0.55485 1.24386,1.6559 1.65709,2.44676c0.41323,0.79088 0.85414,1.43823 0.97981,1.43858c0.32987,0.00079 -0.0582,-2.25918 -0.66751,-3.88775c-2.23944,-5.98545 -8.6131,-10.13454 -15.56826,-10.13454c-2.50382,0 -5.59016,0.65994 -7.39683,1.58163l-1.08965,0.5559l1.45587,1.33058c1.72384,1.5755 3.20169,4.30481 3.46288,6.3953c0.49559,3.96661 -1.81773,8.38667 -5.41363,10.3438c-1.45411,0.79143 -3.94836,1.48862 -5.32561,1.48862l-0.96662,0l0.24421,1.38907c0.5439,3.09358 2.75604,6.37233 5.47768,8.1188c1.6031,1.02871 3.66754,1.76949 5.8803,2.11003l1.68702,0.25963l-1.62377,-0.0665c-1.56764,-0.06421 -1.61337,-0.04771 -1.32292,0.47738c0.16548,0.29914 0.53618,0.81839 0.8238,1.15389c0.52087,0.60758 0.52087,0.60923 0,0.41665c-1.00505,-0.37159 -1.66241,-0.92587 -1.96529,-1.65707c-0.23303,-0.56259 -0.63186,-0.83988 -1.68594,-1.17214c-1.7303,-0.54544 -3.54787,-1.68779 -4.8966,-3.07757c-0.57272,-0.59015 -1.13196,-1.073 -1.24275,-1.073c-0.1108,0 -0.13419,0.88923 -0.052,1.97608c0.30898,4.08532 3.03482,7.13188 7.02898,7.856c0.8233,0.14926 1.91363,0.37359 2.42295,0.4985c1.25243,0.30716 5.37072,0.08118 7.06353,-0.3876zm-1.2466,-18.05073c-0.6527,-0.67572 -1.7225,-1.56642 -2.37734,-1.97935c-1.39092,-0.87705 -1.23499,-0.99667 0.28704,-0.22019c1.17767,0.6008 3.03925,2.1929 3.44031,2.94228c0.45198,0.84454 -0.12168,0.52892 -1.35001,-0.74274zm3.08185,-6.10552c-0.70823,-0.38058 -2.13698,-0.89779 -3.175,-1.14934c-2.09318,-0.50727 -1.2928,-0.68948 0.94393,-0.2149c1.57084,0.3333 3.91563,1.42534 3.91563,1.82364c0,0.37924 -0.25164,0.31062 -1.68456,-0.4594zm-0.69669,-5.65718c-0.80037,-0.25858 -2.34818,-0.49073 -3.43959,-0.51589l-1.98437,-0.04575l1.32291,-0.25473c1.59426,-0.30698 3.59278,-0.09177 5.01813,0.54035c1.46956,0.65175 0.83604,0.84242 -0.91708,0.27603l0,-0.00001zm-13.65924,11.19357c5.50532,-2.57625 7.33755,-8.95959 4.06466,-14.16096c-0.70959,-1.1277 -3.03286,-3.25208 -3.283,-3.00194c-0.052,0.05204 0.2303,0.79736 0.62743,1.65626c0.58169,1.25808 0.7232,1.94985 0.72793,3.55866c0.005,1.72652 -0.11098,2.23439 -0.85692,3.74959c-1.48114,3.00864 -4.36452,5.18507 -7.6898,5.80442c-1.5435,0.28749 -4.31104,0.13188 -5.46631,-0.30735c-0.93046,-0.35376 -0.81693,0.07179 0.27489,1.03042c2.16013,1.89661 4.53906,2.70526 7.57927,2.57634c1.87728,-0.07961 2.60925,-0.2444 4.02185,-0.90544zm-6.09974,-3.62498c4.38787,-1.1429 6.97096,-4.0014 7.25946,-8.03345c0.24987,-3.49226 -1.20573,-6.4696 -4.10083,-8.38798c-2.85241,-1.89009 -3.37539,-2.20489 -4.56632,-2.74859c-0.65484,-0.29895 -0.89297,-0.4568 -0.52917,-0.35077c1.04019,0.30318 2.05435,0.21343 4.86364,-0.43042c3.49943,-0.80202 6.48165,-1.97178 8.53182,-3.34658c0.92924,-0.62312 1.61489,-1.01218 1.52366,-0.86457c-0.65578,1.06108 -7.33875,4.51472 -10.22276,5.28295c-0.69123,0.18413 -1.25677,0.42608 -1.25677,0.53769c0,0.23809 4.09131,3.30791 4.96013,3.72171c0.49056,0.23365 0.95684,0.11312 2.66696,-0.68938c5.05996,-2.3745 10.19345,-2.30573 15.25936,0.20442c2.3713,1.17498 4.20039,2.66468 5.85362,4.76749l0.81832,1.04086l0.76508,-0.5952c2.80505,-2.18222 5.93846,-5.87756 7.3179,-8.63028c0.74452,-1.48569 1.78154,-4.67439 1.78154,-5.47798c0,-0.2901 0.18997,-0.9278 0.42216,-1.41709c0.41233,-0.86893 0.40199,-0.92527 -0.44427,-2.42124c-1.82123,-3.21943 -4.64957,-7.08806 -7.56011,-10.34079c-1.01241,-1.13143 -1.02743,-1.13742 -3.53028,-1.40771c-3.01545,-0.32563 -7.16676,-1.2715 -9.59976,-2.18728c-2.86148,-1.07706 -6.8094,-3.22187 -8.59092,-4.66723c-1.5673,-1.27157 -4.28246,-4.499 -4.31313,-5.1269c-0.008,-0.1602 -0.22544,0.36868 -0.48358,1.1753c-0.59241,1.85106 -2.66236,5.93319 -4.15045,8.18507c-3.0562,4.62483 -5.59002,6.98028 -12.71304,11.81807c-2.60227,1.76741 -5.16573,3.61288 -5.69658,4.10105c-0.53084,0.48816 -1.46374,1.34188 -2.07312,1.89716c-0.60938,0.55528 -1.42521,1.68637 -1.81296,2.51354c-0.59998,1.27992 -0.705,1.85866 -0.705,3.8852c0,2.02437 0.10527,2.60579 0.70241,3.87953c1.56188,3.33162 7.28725,9.53511 11.75722,12.73906c2.27706,1.63214 5.02959,2.11307 7.86577,1.37434zm14.78121,-25.98391c0.78851,-0.90254 1.88782,-2.41757 2.44291,-3.36673c0.94311,-1.61265 1.74111,-2.59094 1.74111,-2.1345c0,0.66106 -1.98458,3.45764 -3.65823,5.155c-1.79011,1.81547 -1.83554,1.84539 -0.52579,0.34623zm73.29809,24.79716c2.19079,-0.81968 3.74373,-2.1242 4.59153,-3.85704c1.12759,-2.30471 1.13559,-5.06468 0.01913,-6.59156c-0.35116,-0.48023 -0.39233,-0.46019 -0.83212,0.40505c-0.25447,0.50066 -0.86456,1.40657 -1.35576,2.01315c-0.50534,0.62401 -0.8931,1.40313 -0.8931,1.79444c0,0.67758 -0.6494,2.52666 -0.88737,2.52666c-0.06634,0 -0.05674,-0.47625 0.02133,-1.05834c0.15752,-1.17436 -0.02569,-1.29789 -0.83671,-0.56418c-1.84565,1.6697 -1.75186,1.11575 0.12845,-0.75873c3.48604,-3.47524 5.00159,-7.08014 5.00996,-11.91681c0.0046,-2.6745 -0.47098,-4.70193 -1.72841,-7.36787c-1.66433,-3.52863 -6.45913,-7.52009 -10.84721,-9.02981c-2.30912,-0.79445 -2.35254,-0.75219 -1.31641,1.28093c3.80657,7.46932 5.5845,18.86737 4.62956,29.67939c-0.14781,1.67349 -0.33274,3.32844 -0.41097,3.67768c-0.14126,0.63065 -0.13074,0.6339 1.54388,0.47752c0.92736,-0.08659 2.35125,-0.40631 3.16421,-0.71048l0.00001,0zm-38.80588,-17.46191c1.30232,-0.28789 2.91355,-0.52602 3.58052,-0.52917c0.66697,-0.0031 1.2797,-0.07275 1.36162,-0.15467c0.18109,-0.18109 -1.345,-4.01512 -2.61922,-6.58031c-2.20891,-4.44685 -6.10471,-10.29972 -8.65645,-13.00504l-0.91061,-0.96542l-1.69797,0.29569c-0.93389,0.16263 -2.67049,0.29569 -3.85911,0.29569c-1.18863,0 -2.16114,0.06012 -2.16114,0.1336c0,0.07348 1.04241,1.42549 2.31647,3.00447c1.27405,1.57898 3.0541,4.04929 3.95565,5.48958c1.74544,2.78849 4.39578,8.15494 5.37597,10.88537c0.32651,0.90951 0.67302,1.65365 0.77003,1.65365c0.097,0 1.24192,-0.23555 2.54424,-0.52344zm25.3866,-6.85183c1.16416,-0.30476 2.37753,-0.55593 2.69636,-0.55817c0.31883,-0.0021 0.65014,-0.11804 0.73624,-0.25735c0.16583,-0.26832 -1.40957,-3.57555 -2.96719,-6.229c-2.43813,-4.15341 -5.3666,-7.82433 -8.94106,-11.20785c-2.44903,-2.31822 -5.25066,-4.53486 -5.73163,-4.53486c-0.17092,0 -0.87556,0.47625 -1.56587,1.05833c-0.69032,0.58209 -1.32804,1.05834 -1.41716,1.05834c-0.0891,0 -0.39879,0.22057 -0.68816,0.49016c-0.52092,0.48531 -0.51228,0.50203 0.87096,1.68645c4.9031,4.19833 8.71086,9.1773 12.04031,15.74369c1.51571,2.98931 1.87383,3.51685 2.32136,3.41948c0.29104,-0.06332 1.48167,-0.36446 2.64584,-0.66922zm-18.35044,-2.43188c4.40229,-0.96426 10.3181,-2.55989 10.62367,-2.86546c0.67875,-0.67875 -6.50246,-9.46653 -10.40791,-12.73636l-1.27983,-1.07154l-2.14121,1.07657c-2.91747,1.46688 -4.4973,2.07258 -7.20939,2.76404l-2.30677,0.58813l1.67122,2.0962c2.09219,2.6242 4.51514,6.23863 5.97233,8.90921c0.61538,1.12779 1.17624,2.05052 1.24637,2.05052c0.0701,0 1.79431,-0.36509 3.83152,-0.81131zm35.89202,-2.07176c0.36392,-5.03115 -5.25548,-9.0034 -12.31502,-8.70525c-2.69108,0.11365 -3.22107,0.35774 -2.67508,1.23201c0.23126,0.3703 0.83062,0.65339 1.80766,0.85377c4.28671,0.87918 9.77216,4.5225 12.03709,7.99478c0.65543,1.00481 1.00341,0.58696 1.14535,-1.37531zm3.30315,-2.19909c2.85788,-1.48683 5.2227,-3.7203 6.33815,-5.98611c0.74299,-1.50921 0.86295,-2.03029 0.86295,-3.74839c0,-2.71735 -1.03213,-4.85231 -3.4304,-7.09577c-3.71923,-3.47916 -7.37468,-4.39401 -17.60398,-4.40576c-8.58974,-0.0099 -16.10298,1.23116 -19.56444,3.23161l-1.1759,0.67958l0.90566,0.75609c0.49812,0.41584 1.53581,0.99184 2.30599,1.28001c3.62482,1.35621 7.17331,3.62626 10.05278,6.43097c1.19976,1.16862 2.22037,2.0745 2.26802,2.01307c0.0477,-0.06142 0.39822,-0.65627 0.77905,-1.32189c1.34377,-2.34866 5.00948,-5.74779 6.94239,-6.43752c0.6222,-0.22202 0.49831,-0.10656 -1.47287,1.37264c-1.52707,1.14593 -2.60124,2.34383 -3.72892,4.15843c-1.19893,1.92924 -1.28317,1.85045 1.99533,1.86633c2.34876,0.01138 3.30765,0.13765 4.75615,0.62631c3.56026,1.2011 6.40225,3.82405 7.08613,6.54001c0.1598,0.63459 0.34752,1.15381 0.41716,1.15381c0.06964,0 1.08968,-0.50104 2.26675,-1.11342zm-10.65828,-14.86557c0,-0.05719 0.18478,-0.17489 0.41062,-0.26155c0.23546,-0.09035 0.34166,-0.046 0.24897,0.10398c-0.15538,0.25141 -0.65959,0.37186 -0.65959,0.15757zm-7.40833,11.77973c0,-0.98261 -5.99126,-7.22536 -7.7229,-8.04708c-0.48645,-0.23084 -1.29929,-0.70037 -1.8063,-1.04341c-0.50701,-0.34304 -1.10043,-0.73027 -1.31872,-0.8605c-0.21828,-0.13023 0.60719,0.82741 1.83438,2.12809c2.0898,2.21495 5.48545,6.52924 6.52782,8.29383l0.46161,0.78145l1.01205,-0.51632c0.55664,-0.28397 1.01206,-0.6152 1.01206,-0.73606zm-38.36458,-9.83071c-3.18284,-0.53441 -2.95605,-0.68768 0.84814,-0.57323c6.97889,0.20996 11.00315,-0.8415 14.7399,-3.85125c0.79693,-0.64188 0.86762,-0.66029 0.59849,-0.15587c-0.4413,0.82712 -2.3052,2.35464 -3.63712,2.98072c-3.1236,1.46826 -8.92644,2.20793 -12.54941,1.59963zm-11.64167,-2.46676c0,-0.06114 0.31232,-0.3158 0.69404,-0.56592c0.38172,-0.25011 0.61321,-0.32397 0.51443,-0.16414c-0.18877,0.30543 -1.20847,0.92146 -1.20847,0.73006zm2.735,-2.28723c3.85913,-4.32056 4.47091,-10.63818 1.49899,-15.47959c-0.47171,-0.76844 -0.57494,-1.04673 -0.24629,-0.66398c1.39536,1.62508 2.62689,5.10835 2.62689,7.42992l0,1.2308l1.39552,0.28026c1.96861,0.39536 6.77007,0.977 6.90356,0.8363c0.0613,-0.0646 -0.052,-0.89137 -0.25185,-1.83725c-0.50656,-2.39803 -0.46204,-4.33486 0.15511,-6.7479c1.15636,-4.52132 3.8101,-7.31862 7.59575,-8.00669c0.85919,-0.15616 1.51504,-0.15093 1.81056,0.01445c0.47867,0.26788 0.47807,-0.01306 -0.003,-1.17593c-0.28593,-0.69185 1.12004,-2.06353 2.30884,-2.25252c0.93491,-0.14864 1.09495,-0.06536 2.56005,1.3321c0.85953,0.81986 1.72045,1.49461 1.91316,1.49945c0.7096,0.01783 -0.89168,1.02693 -2.26146,1.42514l-1.4021,0.4076l1.21321,1.26502c2.52213,2.62982 3.90831,7.25583 3.29184,10.98566c-0.14261,0.86287 -0.31931,1.06383 -1.32752,1.5098c-1.02755,0.45454 -4.17878,3.32727 -5.42277,4.94353c-0.3648,0.47396 -0.83087,0.60222 -2.77813,0.76454c-5.24021,0.43682 -10.92969,-1.0551 -14.08871,-3.69439c-0.62327,-0.52082 -1.27247,-0.94695 -1.44254,-0.94695c-0.17008,0 -0.44531,0.57288 -0.61164,1.27306c-0.58217,2.4508 -2.31297,5.24416 -4.05615,6.54628c-0.3638,0.27175 -0.0856,-0.15067 0.61833,-0.93871l0.00035,0zm21.01722,-2.87211c0.56866,-0.16275 0.57838,-0.20455 0.17968,-0.77273c-0.23183,-0.33037 -1.03814,-0.95433 -1.7918,-1.38658c-1.32288,-0.75871 -1.48935,-0.78629 -4.80989,-0.79705c-1.89177,-0.0061 -4.24428,-0.11489 -5.2278,-0.2417c-1.82297,-0.23504 -2.84199,-0.13669 -2.84199,0.27428c0,0.54936 3.99975,2.18249 6.74687,2.75479c1.67814,0.34961 6.72883,0.45981 7.74493,0.16899zm1.31457,-4.26963c3.04635,-0.55129 5.86995,-1.44206 6.21614,-1.96103c0.33273,-0.49879 0.21372,-3.65015 -0.20491,-5.42615c-1.46422,-6.21175 -6.76822,-9.58982 -11.08507,-7.05998c-4.0832,2.39291 -6.19699,8.90702 -4.63539,14.2849l0.29963,1.03183l3.21776,-0.16568c1.76977,-0.09113 4.5561,-0.40788 6.19184,-0.70389zm-5.67739,-4.12642c-0.11391,-0.27899 -0.20711,-1.22163 -0.20711,-2.09476c0,-1.92857 0.26551,-2.75074 0.73628,-2.27997c0.19499,0.19499 0.32206,1.09454 0.32206,2.27997c0,2.0396 -0.43584,3.11214 -0.85123,2.09476zm7.06712,-1.96684c-0.55207,-1.33282 0.088,-3.71945 0.80517,-3.00227c0.69649,0.69649 0.47256,3.80039 -0.27419,3.80039c-0.11021,0 -0.34915,-0.35915 -0.53098,-0.79812zm2.87275,-9.54651c0.45828,-0.15976 0.83323,-0.34876 0.83323,-0.42001c0,-0.07125 -0.64313,-0.78824 -1.42917,-1.59332c-0.86237,-0.88324 -1.55215,-1.38778 -1.73923,-1.27216c-0.21479,0.13275 -0.14149,0.30968 0.23855,0.57588c0.63715,0.44627 0.7299,1.14799 0.15173,1.14799c-0.21828,0 -0.39688,0.1786 -0.39688,0.39688c0,0.21828 0.19248,0.39687 0.42773,0.39687c0.29748,0 0.3856,0.16116 0.28936,0.52917c-0.16161,0.61799 0.32962,0.69016 1.62468,0.2387zm-28.67285,3.0949c-0.8759,-0.20076 -2.06653,-0.56775 -2.64584,-0.81553l-1.05329,-0.4505l1.2329,-0.40325c0.6781,-0.22179 1.7941,-0.867 2.48001,-1.43381c1.5449,-1.27662 2.18427,-1.44478 3.97212,-1.04468c1.50556,0.33693 2.9595,2.02962 3.44203,2.96284c0.25511,0.49338 -0.70643,-0.57773 -1.36363,-1.19345c-0.7997,-0.74924 -2.48738,-1.63493 -2.48738,-1.22368c0,0.13048 0.11906,0.31081 0.26458,0.40075c0.48511,0.29981 0.27281,0.62536 -0.46302,0.71003c-0.52331,0.06021 -0.72761,0.2323 -0.72761,0.61289c0,0.38059 0.2043,0.55267 0.72761,0.61288c0.80071,0.09213 0.89697,0.29187 0.39687,0.82348c-0.27373,0.29098 -0.0534,0.3244 1.27865,0.19389c2.06867,-0.20267 2.56048,-0.39675 2.37393,-0.93679c-0.10505,-0.30412 -0.0325,-0.27947 0.24938,0.08471c0.21864,0.28247 0.39752,0.59602 0.39752,0.69676c0,0.59834 -5.93158,0.89471 -8.07483,0.40346zm-0.65642,-1.06903c0,-0.5494 -0.30488,-0.65128 -1.05833,-0.35364c-0.62936,0.24862 -0.63578,0.27189 -0.13229,0.47951c0.80969,0.33387 1.19062,0.2936 1.19062,-0.12587zm-3.28286,-4.68646c0.68264,-0.94957 2.65113,-2.23938 3.94432,-2.58444c2.55736,-0.68236 5.12004,-0.0168 7.00015,1.81795c0.67857,0.6622 0.86941,0.88942 0.42409,0.50492c-1.44285,-1.24579 -3.06063,-1.8896 -5.07963,-2.02148c-1.64181,-0.10724 -2.09149,-0.0307 -3.43959,0.58532c-0.85297,0.38978 -1.95658,1.08919 -2.45246,1.55426c-0.78546,0.73664 -0.83659,0.75512 -0.39688,0.14347zm25.58957,-1.14999c0.79517,-1.5891 2.72348,-2.78402 4.47386,-2.77231c0.90112,0.006 2.93098,0.8015 3.21406,1.25954c0.0891,0.14416 -0.27858,0.0375 -0.81705,-0.23704c-2.0297,-1.0348 -4.81818,-0.35375 -6.44918,1.57513c-0.76719,0.90731 -0.7938,0.91834 -0.42169,0.17468zm-52.55302,-8.52051c-0.21254,-0.3439 8.78836,-1.24054 10.25115,-1.02118c1.64474,0.24664 1.76333,0.62824 0.14697,0.47293c-0.72024,-0.0692 -2.41286,0.004 -3.76139,0.16294c-4.33339,0.51035 -6.48234,0.63511 -6.63673,0.38531zm-2.8266,-2.57945c0.94588,-0.20723 2.01744,-0.3805 2.38125,-0.38505c0.57893,-0.007 0.6031,0.0257 0.19371,0.26406c-0.25726,0.14978 -1.32882,0.32305 -2.38125,0.38505l-2.90168,0.12028l2.70797,-0.38434zm66.80729,-2.58757c-1.30969,-0.13875 -3.53034,-0.27098 -4.93479,-0.29383c-2.68268,-0.0436 -3.1477,-0.28507 -1.13151,-0.58742c1.42135,-0.21314 10.57994,0.68515 10.09907,0.99053c-0.38249,0.24291 -0.82065,0.23104 -4.03277,-0.10928zm5.21209,-2.31617c-0.48033,-0.11376 -0.95658,-0.29694 -1.05833,-0.40706c-0.17706,-0.19164 1.25926,-0.028 3.51915,0.40095l1.79348,0.69936l-2.05806,-0.49249c-0.7276,0.003 -1.71591,-0.087 -2.19624,-0.2008l0,0.00004z"/>
    <path fill="url(#radialGradient3340)" stroke-width="7.635799" stroke-linecap="round" stroke-linejoin="bevel" stroke-miterlimit="4" stroke-opacity="0.917647" id="path3201" d="m16.109907,-143.137892c-1.199687,0.055393 -2.097807,1.398543 -1.244521,2.435529c0.639178,1.93942 2.088904,3.676772 2.211282,5.717757c-2.393847,0.767744 -4.898567,1.444154 -7.400547,1.611447c-1.744099,-1.352579 -1.906183,-4.059994 -3.60344,-5.419516c-3.389622,0.424585 -6.603317,1.765181 -9.966753,2.396551c-1.482929,0.529431 -3.385037,0.456041 -4.588994,1.491906c-0.067784,2.421668 1.884971,4.572175 1.732552,6.991292c-2.243854,0.634852 -4.627499,0.801195 -6.927085,1.235599c-0.953833,0.113818 -2.197963,0.075255 -2.415339,-1.097267c-1.018334,-1.769896 -1.257726,-4.125873 -2.804766,-5.517653c-1.277665,-0.029369 -1.177044,1.882227 -1.634823,2.73962c-1.359643,5.399773 -5.434642,9.489982 -9.558652,12.957765c-0.368895,1.461106 0.91273,2.851089 0.715674,4.368707c-0.049308,3.700137 0.429117,7.497143 -0.361754,11.147541c-0.739436,3.154423 -3.377269,5.191699 -4.946049,7.865658c-0.702164,1.722326 -1.153858,3.563075 -2.635112,4.829122c-3.821546,3.925901 -9.944653,4.394539 -14.987452,3.090825c-3.024476,-0.914162 -5.92083,-3.05154 -7.117617,-6.03653c-0.540991,-3.099668 -0.410938,-6.33267 -1.55507,-9.323112c-0.274751,-1.116243 -0.408522,-2.486215 -1.799894,-2.731685c-1.807998,-0.538943 -3.383013,-1.670844 -5.029052,-2.448229c-1.100331,1.625153 -0.580385,3.928793 -0.67809,5.844955c0.299315,13.819507 2.336956,28.146282 9.659194,40.142099c1.062482,1.860725 2.628982,3.327654 3.745521,5.148601c1.657784,1.740045 4.167505,2.485221 6.475021,2.896113c4.367437,0.251881 9.549037,0.217408 12.596643,-3.465105c2.479389,-3.162803 4.663474,-6.513168 7.7362,-9.178517c3.620429,-3.489103 8.195506,-5.762897 12.787177,-7.688694c-1.790076,1.149546 -4.182311,1.665102 -5.508781,3.390458c0.031853,1.567111 2.051397,2.493706 2.637721,3.632152c-1.678596,0.826765 -0.190222,2.740094 0.507394,3.728201c-1.166442,0.805066 0.418843,2.013032 1.153644,2.4404c4.424627,2.535034 10.202876,2.454616 14.72279,0.200972c2.963021,-1.998644 4.038372,-5.69359 5.897681,-8.583425c5.469747,-9.838476 10.22976,-20.073757 14.268122,-30.57939c4.047577,-11.251374 4.528484,-23.731079 1.759466,-35.336816c-0.809035,-2.97679 -1.674982,-6.020909 -3.211703,-8.705236c-0.168939,-0.153744 -0.407739,-0.208277 -0.630587,-0.192098z"/>
    <path fill="url(#radialGradient3244)" stroke-width="1.90895" stroke-linecap="round" stroke-linejoin="bevel" stroke-miterlimit="4" stroke-opacity="0.917647" d="m-57.607174,-56.105077c-0.270576,-0.008176 -0.555728,0.085431 -0.825791,0.101285c-4.123653,0.610785 -8.039518,2.368166 -11.397237,4.814178c-3.624858,2.642142 -6.394064,6.440808 -7.72976,10.728542c-0.880549,2.65639 -0.942615,5.578213 -0.096118,8.251693c1.143204,3.95024 3.833519,7.376716 7.302397,9.560142c2.954613,1.906889 6.385563,2.973967 9.846942,3.474723c3.267104,0.056216 6.575277,-0.12264 9.748242,-0.957048c5.233434,-1.431734 10.097659,-4.436766 13.409517,-8.773623c2.015183,-2.62599 3.264847,-5.809919 3.706236,-9.081616c0.106307,-2.439334 -0.233074,-4.869005 -0.451654,-7.293613c-0.268367,-2.345219 -0.648298,-4.714007 -1.542539,-6.910689c-0.124045,-0.354857 -0.561917,-0.501377 -0.863515,-0.266134c-0.885433,0.609597 -1.616509,1.430988 -2.574518,1.943034c-2.561201,1.494253 -5.587315,1.941105 -8.497157,1.784387c-2.738392,-0.206417 -5.562145,-0.967086 -7.693586,-2.77399c-1.018405,-0.914477 -1.868503,-2.122003 -2.093412,-3.493844c-0.073909,-0.360791 0.000767,-0.755631 -0.133326,-1.097092c-0.037984,-0.005847 -0.076068,-0.009155 -0.114721,-0.010345l0,0.000011zm1.261938,0.559139c-0.368721,0.111345 -0.124486,0.594545 -0.052194,0.842327c0.462859,1.282912 1.339062,2.400025 2.497005,3.125907c1.837507,1.192903 4.006686,1.86576 6.187736,2.008664c1.718551,0.022542 3.480829,0.048413 5.12527,-0.528651c1.656366,-0.55409 3.349321,-1.252847 4.609536,-2.500622c0.235432,-0.313997 0.640114,-0.605856 0.658357,-1.021128c-0.204838,-0.292388 -0.608401,0.015637 -0.864029,0.082166c-1.725001,0.853583 -3.605384,1.444255 -5.542814,1.474327c-2.628006,0.126431 -5.30461,0.096486 -7.81141,-0.744657c-1.489178,-0.466355 -2.842956,-1.31922 -4.051432,-2.308386c-0.238657,-0.148434 -0.466243,-0.394354 -0.756026,-0.429948zm-1.228349,8.829437c3.392186,-0.012806 6.797683,0.366366 10.05055,1.384927c2.434762,0.745858 4.863494,1.697596 6.943762,3.209107c0.276593,0.211505 -0.59917,-0.190971 -0.396359,-0.09302c-3.376351,-1.412891 -6.776286,-2.972808 -10.459826,-3.3538c-2.988754,-0.360339 -6.007775,-0.246496 -9.011338,-0.258897c-2.153407,0.028038 -4.318328,0.039272 -6.461104,0.214974c3.016769,-0.881515 6.202775,-1.083964 9.334315,-1.103291z" id="path3215"/>
    <path fill="url(#radialGradient3252)" stroke-width="0.674916" stroke-linecap="round" stroke-linejoin="bevel" stroke-miterlimit="4" stroke-opacity="0.917647" d="m-17.049687,-59.236579c-0.15702,-0.019235 -0.245637,0.191736 -0.113088,0.284591c0.085987,0.10677 0.284567,0.179967 0.355505,0.01651c0.090966,-0.116358 0.012488,-0.291952 -0.138142,-0.292481c-0.03434,-0.006376 -0.069331,-0.009763 -0.104275,-0.008625l0,0.000005zm29.543597,-8.07502c-2.130102,0.018521 -4.290131,0.131921 -6.328465,0.805072c-1.170948,0.376992 -2.385229,0.705353 -3.446576,1.342874c-0.310327,0.130413 -0.248399,0.482608 -0.055203,0.688663c0.652955,0.888936 1.404226,1.765697 1.611053,2.880847c0.096533,0.23971 0.197564,0.766876 0.562991,0.587261c1.940835,-0.690697 3.855646,-1.52341 5.876928,-1.925307c0.227087,-0.069244 0.266512,0.05738 0.04972,0.160128c-1.235617,0.763143 -2.700642,1.079344 -4.010562,1.709097c-3.870788,1.699374 -7.403375,4.052612 -10.943923,6.337953c-0.576995,0.383109 -1.164863,0.788308 -1.716712,1.183796c0.886976,-0.941022 1.827623,-1.833941 2.680134,-2.805938c0.03941,-0.363045 -0.431729,-0.109003 -0.615191,-0.085741c-1.846897,0.262064 -3.742187,0.197601 -5.609212,0.175887c-2.757024,-0.024421 -5.510779,-0.535495 -7.982431,-1.794653c-1.066043,-0.489098 -2.118865,-1.164217 -2.672646,-2.241764c-0.260305,-0.392263 -0.485532,-0.870434 -0.914694,-1.094004c-0.884523,0.408072 -1.449472,1.266066 -2.071375,1.981113c-1.352852,1.625327 -2.258383,3.830931 -1.727298,5.95593c0.535146,2.084435 1.879214,3.849963 3.279844,5.436801c3.44124,3.753255 8.22225,5.970201 13.069303,7.283445c3.605003,0.990592 7.340875,1.590574 11.087984,1.449372c3.650075,-0.004313 7.334591,-0.224176 10.869197,-1.198692c4.6316,-1.198645 9.233768,-3.064147 12.824843,-6.306248c2.516203,-2.264759 4.404135,-5.410158 4.588915,-8.846942c0.100478,-2.321407 -1.120603,-4.490051 -2.640745,-6.159656c-2.413288,-2.567514 -5.762564,-4.006741 -9.102114,-4.935683c-2.175502,-0.515609 -4.43757,-0.572717 -6.663764,-0.58361zm-10.617308,3.354051c-0.479989,0.529677 -0.760368,1.229365 -1.175734,1.8156c-0.786254,1.262687 -1.770211,2.507194 -3.179008,3.087124c-2.880844,1.294387 -6.130499,1.50091 -9.23163,1.205325c-1.687227,-0.135501 -3.306522,-0.731978 -4.906772,-1.278406c-0.252267,-0.13112 -0.440388,0.242977 -0.183486,0.363971c1.234998,0.666866 2.6197,1.009571 3.970152,1.363755c2.385835,0.602112 4.873977,0.466868 7.306323,0.317513c2.456373,-0.169495 4.810958,-1.074248 6.953967,-2.247781c0.822672,-0.506047 1.847323,-1.099976 1.980118,-2.155513c0.037827,-0.929124 -0.71656,-1.610638 -1.234382,-2.294279c-0.080537,-0.07897 -0.166603,-0.21549 -0.299548,-0.177311zm-21.210862,1.610926c-0.55998,0.427426 -0.324906,1.235279 0.058986,1.69536c0.447582,0.536795 0.904087,1.155218 1.558073,1.442053c0.360759,-0.052866 0.035396,-0.454631 -0.066688,-0.611275c-0.496295,-0.750083 -1.188868,-1.432232 -1.300604,-2.367052c-0.001058,-0.129413 -0.13108,-0.264811 -0.249767,-0.159086z" id="path3226"/>
    <path fill="url(#radialGradient3302)" stroke-width="1.90895" stroke-linecap="round" stroke-linejoin="bevel" stroke-miterlimit="4" stroke-opacity="0.917647" id="path3294" d="m-28.42508,-206.021796c-2.012524,-0.019685 -4.040537,0.108228 -5.986158,0.657992c-4.407556,1.135245 -8.513961,3.430646 -11.772535,6.610924c-0.46631,0.464166 -1.003459,0.875207 -1.406932,1.393981c0.108545,0.404879 0.511355,0.690782 0.740471,1.040368c0.215493,0.265697 0.428646,0.53363 0.628631,0.811334c-1.225915,-1.172961 -2.42947,-2.448375 -4.025866,-3.116442c-2.47637,-1.151678 -5.373484,-1.034156 -7.917479,-0.165306c-2.053423,0.678725 -4.132927,1.27381 -6.215322,1.858619c-1.266177,0.502073 -2.667995,0.527084 -4.010218,0.572908c-0.365146,0.048657 -0.798883,-0.039502 -1.117624,0.164563c-0.110128,0.343276 0.375571,0.499996 0.593767,0.656392c1.197763,0.558853 2.24549,1.35364 3.16911,2.296652c1.459931,1.395201 2.759641,2.93951 3.803385,4.669094c0.912582,1.354021 2.530345,1.910009 3.907827,2.651969c1.773124,0.893411 3.618431,1.630079 5.485908,2.299959c-0.480335,-0.112075 -1.184513,-0.320844 -1.491123,0.217024c-0.557908,1.110364 -0.764027,2.359977 -1.136809,3.53845c-0.470993,1.797211 -1.036799,3.57424 -1.402514,5.396547c-0.344993,2.673271 -0.163634,5.402778 0.344858,8.043579c0.463701,2.151113 1.53525,4.110672 2.615533,6.006314c2.100696,3.498948 5.445427,6.128112 9.150847,7.763737c2.532388,1.142169 5.1127,2.242095 7.82814,2.867692c2.734151,0.552551 5.517269,0.84628 8.298405,1.025882c2.214195,-0.015214 4.447008,0.049022 6.634263,-0.357926c4.490847,-0.729956 8.955627,-1.928939 12.98212,-4.092998c2.957126,-1.544484 5.618258,-3.601223 8.070024,-5.844434c1.479672,-1.336347 3.226065,-2.31644 4.799367,-3.528401c1.343716,-1.137629 2.638592,-2.410148 3.480509,-3.973676c0.737833,-1.554618 0.957395,-3.302241 0.818253,-5.006083c-0.158604,-2.408547 -1.137298,-4.764791 -2.820561,-6.507848c-1.37962,-1.606074 -3.305262,-2.573036 -5.217229,-3.394959c-0.51539,-0.286226 -1.179192,-0.425783 -1.54568,-0.918215c-0.440793,-1.045549 -0.548431,-2.196843 -0.857882,-3.287374c-0.838205,-3.363328 -1.936933,-6.757702 -4.063563,-9.548101c-2.059159,-2.750365 -4.667509,-5.070491 -7.529661,-6.958346c-3.215542,-2.084051 -6.94558,-3.36274 -10.755794,-3.737644c-1.356307,-0.110514 -2.718668,-0.107291 -4.07847,-0.106228zm-26.685192,11.091032c0.626898,0.006906 1.283708,0.023892 1.887852,0.24887c-1.989987,0.038206 -3.991126,0.081635 -5.969847,0.352748c-1.680311,0.176265 -3.36451,0.384961 -5.051629,0.323646c2.020118,-0.429691 4.08868,-0.567457 6.141069,-0.761958c0.99591,-0.075406 1.998565,-0.156533 2.992554,-0.163306zm47.707089,6.794884c1.033449,0.100909 2.01222,0.508429 2.900029,1.029928c-0.826638,-0.362339 -1.682567,-0.749676 -2.610967,-0.668607c-1.584148,-0.043278 -3.120049,0.671819 -4.196723,1.817685c-0.124936,0.100089 -0.578948,0.667763 -0.341508,0.291933c0.854432,-1.482439 2.555314,-2.430711 4.249169,-2.470938zm-24.134648,1.078082c1.604687,-0.000233 3.19042,0.606166 4.421955,1.625544c-1.484326,-0.95036 -3.265429,-1.332074 -5.013783,-1.27548c-0.733012,-0.054515 -1.462691,0.075893 -2.12086,0.407765c-1.032476,0.452705 -2.017149,1.027599 -2.889009,1.744559c1.378469,-1.359334 3.208345,-2.436532 5.19679,-2.493296c0.134826,-0.007223 0.269904,-0.009472 0.404908,-0.009102l0,0.000008zm24.319309,1.859664c0.819756,0.048088 1.343607,0.793909 1.936496,1.26969c0.666282,0.576556 1.305811,1.265854 2.100212,1.641303c-0.714478,0.682644 -1.710989,0.960932 -2.616777,1.279065c-0.342138,0.144005 -0.776243,0.158808 -1.066469,0.38232c-0.066207,0.276923 0.33723,0.45924 0.467529,0.683096c1.46775,1.444977 2.64519,3.199622 3.268311,5.172474c0.741691,2.11814 0.974201,4.420227 0.615712,6.641674c-0.084389,0.793798 -0.960615,1.038995 -1.533147,1.402382c-2.104768,1.387761 -3.781306,3.302691 -5.528876,5.092607c-0.640305,0.31687 -1.385544,0.282533 -2.083379,0.38064c-4.028583,0.344604 -8.189624,-0.285435 -11.841438,-2.083715c-1.292759,-0.597935 -2.352469,-1.563026 -3.525864,-2.346584c-0.234828,-0.196779 -0.598294,-0.177242 -0.723254,0.133014c-0.49671,1.082442 -0.682935,2.29153 -1.242766,3.346513c-0.713576,1.450525 -1.623666,2.861897 -2.84484,3.917135c1.477544,-1.659834 2.710008,-3.580524 3.308241,-5.73755c0.901568,-3.164483 0.62075,-6.680539 -0.935471,-9.597853c-0.059232,-0.142407 -0.463746,-0.845558 -0.261935,-0.523285c1.37849,2.239404 2.094304,4.93228 2.050502,7.573333c-0.025048,0.454131 0.547484,0.386202 0.842267,0.483645c2.483249,0.46092 4.992994,0.774089 7.507819,1.001215c0.298953,-0.143529 0.049641,-0.593431 0.071385,-0.869408c-0.312589,-1.829906 -0.699421,-3.674361 -0.466217,-5.531599c0.355206,-2.973197 1.408427,-6.046922 3.637304,-8.112853c1.516002,-1.383538 3.616293,-2.298184 5.684697,-2.206016c0.281329,-0.042005 0.692092,0.366226 0.854138,-0.011086c0.01569,-0.630182 -0.625057,-1.272918 -0.201366,-1.88159c0.548338,-0.829072 1.526011,-1.440929 2.527186,-1.498563l0,-0.000005zm-23.558346,2.413127c1.227206,0.047016 2.445663,0.544221 3.272372,1.460704c0.478211,0.422561 0.817311,0.95395 1.235975,1.425885c0.296966,0.203864 0.513773,0.578088 0.648859,0.911302c-0.362723,0.306073 -0.911746,0.26329 -1.357656,0.368459c-1.858566,0.209553 -3.737396,0.254971 -5.598813,0.093522c-1.51212,-0.160192 -2.950517,-0.70322 -4.350284,-1.277885c1.226561,-0.404106 2.416096,-0.949336 3.42479,-1.768816c0.774634,-0.630063 1.661477,-1.29544 2.724759,-1.21317zm24.311739,23.995139c-0.587973,0.909767 -1.488665,1.57017 -2.339425,2.220209c-1.731732,1.228926 -3.861088,1.693577 -5.91217,2.095466c-2.790838,0.480864 -5.671103,0.666477 -8.46541,0.131337c-0.412324,-0.071803 -0.825526,-0.143351 -1.230641,-0.249653c3.853228,-0.057912 7.813267,0.268086 11.574282,-0.805463c2.217359,-0.599363 4.252566,-1.734672 6.041789,-3.161374c0.10391,-0.075647 0.239874,-0.179197 0.331573,-0.230521zm-27.052037,1.773272c-0.242287,0.167891 -0.101105,0.061336 0.062643,-0.044894l-0.054311,0.038923l-0.008332,0.005972z"/>
    <path fill="url(#radialGradient3312)" stroke-width="1.90895" stroke-linecap="round" stroke-linejoin="bevel" stroke-miterlimit="4" stroke-opacity="0.917647" id="path3304" d="m-11.283551,-181.379365c-2.125853,-0.042452 -4.020915,1.285214 -5.314199,2.875759c-1.633347,2.040916 -2.566445,4.607946 -2.796066,7.200482c-0.10215,1.832488 -0.055869,3.704434 0.529135,5.461966c0.145508,0.283218 0.076727,0.946936 0.553649,0.797618c2.678232,-0.16755 5.372439,-0.276881 8.030554,-0.697132c2.314705,-0.369208 4.647216,-0.831398 6.807774,-1.766255c0.402238,-0.150347 0.758984,-0.46927 0.768533,-0.92683c0.148352,-1.661522 -0.005689,-3.349503 -0.343681,-4.98054c-0.69093,-3.074757 -2.572901,-6.062657 -5.506897,-7.413159c-0.851868,-0.409003 -1.787086,-0.579832 -2.728801,-0.551908zm4.068162,6.255777c0.470606,0.187727 0.468569,0.823373 0.542761,1.249826c0.031975,0.76985 0.081047,1.625584 -0.356013,2.307418c-0.181049,0.275915 -0.389199,-0.125823 -0.483513,-0.275622c-0.45107,-0.862568 -0.383394,-1.881135 -0.11458,-2.794976c0.080169,-0.178639 0.179514,-0.466516 0.411345,-0.486645zm-7.278267,0.615191c0.349433,0.222554 0.293272,0.749202 0.359796,1.116843c0.034814,1.095171 0.132032,2.235277 -0.207761,3.302241c-0.038415,0.149238 -0.197189,0.328099 -0.272227,0.106749c-0.331967,-0.613997 -0.240816,-1.36874 -0.297677,-2.037662c0.028787,-0.794779 -0.048003,-1.648672 0.266618,-2.401517c0.03179,-0.051454 0.085355,-0.10241 0.151252,-0.086654z"/>
    <path fill="url(#radialGradient3322)" stroke-width="3.817899" stroke-linecap="round" stroke-linejoin="bevel" stroke-miterlimit="4" stroke-opacity="0.917647" id="path3314" d="m-6.595058,-204.410716c-2.113314,-0.029789 -4.235688,0.684117 -5.925346,1.936401c-0.27781,0.592005 0.649007,0.94665 0.938578,1.338696c2.977428,2.363401 5.607293,5.182227 7.518926,8.478081c0.424471,0.539816 0.627375,1.389803 1.241981,1.735844c1.208167,-0.534133 2.416651,-1.192514 3.422041,-2.058289c1.366044,-1.689211 2.564305,-3.524041 4.168592,-5.012293c1.059622,-1.12908 2.321573,-2.043867 3.565258,-2.923836c-0.728096,-0.411144 -1.762768,-0.361976 -2.622844,-0.524362c-3.062015,-0.346721 -5.880449,-1.712227 -8.840089,-2.493349c-1.114655,-0.386157 -2.29385,-0.495133 -3.467097,-0.476893zm0.938837,4.484857c2.974054,0.057862 5.960517,0.266549 8.885404,0.811988c0.280696,0.160139 -0.506741,0.161367 -0.676002,0.151384c-3.178633,-0.287176 -6.379742,-0.489069 -9.574461,-0.660606c-0.147936,-0.008308 -0.965319,-0.087103 -0.427527,-0.186357c0.589402,-0.112347 1.194792,-0.108823 1.792586,-0.116409z"/>
    <path fill="url(#linearGradient3358)" stroke-width="1.90895" stroke-linecap="round" stroke-linejoin="bevel" stroke-miterlimit="4" stroke-opacity="0.917647" id="path3346" d="m-19.670697,-149.059392c-2.235189,0.486603 -4.519901,0.579551 -6.800427,0.63949c-0.314841,0.065643 -0.72811,-0.080058 -0.971793,0.168844c-0.032493,0.39891 0.399431,0.676108 0.57382,1.006176c2.527893,3.230891 5.132768,6.437061 7.055694,10.078966c1.702099,3.094545 3.156622,6.313046 4.446945,9.59862c0.10274,0.321813 0.374962,0.742614 0.77121,0.556784c2.177463,-0.45588 4.344749,-0.965036 6.580402,-1.050338c0.298455,-0.004233 0.814152,-0.032523 0.748038,-0.461073c-0.301905,-1.250725 -0.849156,-2.432225 -1.32856,-3.623709c-2.04888,-4.763251 -4.782693,-9.212866 -7.888716,-13.356082c-0.95246,-1.231225 -1.944145,-2.456164 -3.068122,-3.525912c-0.041077,-0.001323 -0.073171,-0.055211 -0.118491,-0.031766z"/>
    <path fill="url(#linearGradient3356)" stroke-width="1.90895" stroke-linecap="round" stroke-linejoin="bevel" stroke-miterlimit="4" stroke-opacity="0.917647" id="path3348" d="m-1.222707,-157.473425c-1.034666,0.472805 -1.824075,1.346785 -2.761305,1.979205c-0.501018,0.288766 -1.037333,0.613018 -1.343657,1.122193c-0.107032,0.477954 0.471302,0.731412 0.720897,1.04376c2.853862,2.472089 5.500116,5.188508 7.711022,8.255582c2.081276,2.830195 3.799417,5.899676 5.386925,9.032219c0.455803,0.766575 0.784611,1.657305 1.461849,2.262285c0.390419,0.241517 0.853964,-0.078243 1.266955,-0.107722c1.645245,-0.392176 3.279338,-0.818838 4.947584,-1.100471c0.335068,-0.032869 0.53762,-0.373155 0.390723,-0.678744c-0.647105,-1.882767 -1.640388,-3.625673 -2.59252,-5.367332c-3.463909,-6.102003 -8.231574,-11.448714 -13.831244,-15.668138c-0.432279,-0.265978 -0.843407,-0.687073 -1.357228,-0.772837z"/>
    <path fill="url(#radialGradient3385)" stroke-width="1.349831" stroke-linecap="round" stroke-linejoin="bevel" stroke-miterlimit="4" stroke-opacity="0.917647" id="path3364" d="m19.555054,-162.584526c-2.045563,-0.003149 -4.092861,0.025003 -6.130623,0.219863c-3.63842,0.320342 -7.30758,0.78028 -10.773013,1.985335c-1.201653,0.414086 -2.336816,1.007965 -3.406307,1.688711c-0.216609,0.284316 0.208677,0.48564 0.37238,0.663093c1.099341,1.026917 2.520931,1.572461 3.88911,2.135354c3.254579,1.387107 6.233448,3.385762 8.790435,5.834065c0.772369,0.698616 1.490075,1.466048 2.323936,2.092193c0.249203,0.185126 0.465873,-0.110686 0.545923,-0.322053c0.768945,-1.396794 1.70343,-2.717893 2.838513,-3.838083c1.211225,-1.220055 2.498336,-2.400104 4.00354,-3.248972c-1.382204,1.0327 -2.775839,2.100572 -3.794067,3.514183c-0.615082,0.860369 -1.237901,1.727729 -1.709936,2.676655c-0.16565,0.278072 -0.114858,0.710229 0.242327,0.80006c0.804651,0.183534 1.644155,0.11058 2.46362,0.154718c1.532554,0.033838 3.108079,0.011959 4.575855,0.53254c2.625394,0.833247 5.070486,2.474912 6.527988,4.852088c0.528508,0.835898 0.691618,1.809279 1.04045,2.718456c0.067516,0.229664 0.332687,0.258223 0.503322,0.12274c1.751407,-0.861068 3.526142,-1.725795 5.032965,-2.986529c1.895922,-1.514245 3.47595,-3.523655 4.157379,-5.8782c0.243395,-0.986602 0.172953,-2.018779 0.135374,-3.024733c-0.162983,-2.085597 -1.223013,-4.005908 -2.657843,-5.492432c-1.594408,-1.695799 -3.517707,-3.137961 -5.741424,-3.885734c-2.670276,-0.911339 -5.512898,-1.122071 -8.311274,-1.270447c-1.639054,-0.044371 -3.279092,-0.043685 -4.918631,-0.04287z"/>
    <path fill="#000333" stroke-width="1.349831" stroke-linecap="round" stroke-linejoin="bevel" stroke-miterlimit="4" stroke-opacity="0.917647" id="path3366" d="m-19.212513,-133.64065c-0.313243,0.058896 -0.339511,0.659035 0.049739,0.567793c0.249838,-0.029363 0.394467,-0.365257 0.150693,-0.513072c-0.054983,-0.045712 -0.129347,-0.069308 -0.200432,-0.054721z"/>
    <path fill="url(#radialGradient3377)" stroke-width="1.349831" stroke-linecap="round" stroke-linejoin="bevel" stroke-miterlimit="4" stroke-opacity="0.917647" d="m5.076057,-154.289998c-0.296915,0.041939 -0.191397,0.400047 -0.020214,0.528852c1.373272,1.562185 2.824991,3.055967 4.124587,4.682485c1.582722,1.949183 3.130979,3.919479 4.420481,6.074611c0.212577,0.26797 0.522047,-0.060637 0.753298,-0.136043c0.553109,-0.300585 1.168342,-0.549844 1.592165,-1.033044c0.117507,-0.288226 -0.152892,-0.569124 -0.276463,-0.824071c-1.046038,-1.547376 -2.378623,-2.873542 -3.67688,-4.207028c-1.161418,-1.128197 -2.286968,-2.33073 -3.671051,-3.191359c-1.0863,-0.541928 -2.07351,-1.245672 -3.115627,-1.869395c-0.041463,-0.015769 -0.085397,-0.028469 -0.130299,-0.025003l0.000005,-0.000003zm-11.466909,0.564102c-0.645509,0.17671 -1.219242,0.556998 -1.828654,0.828061c-2.089166,1.050843 -4.216884,2.070182 -6.491219,2.661176c-1.108176,0.316267 -2.233951,0.568764 -3.340912,0.888124c-0.301863,0.216268 0.083156,0.490987 0.200337,0.692282c2.282944,2.858341 4.475856,5.795838 6.346378,8.944372c0.738045,1.189323 1.348875,2.4677 2.133264,3.631456c0.279762,0.269838 0.685057,-0.014499 1.00716,-0.0254c4.272912,-0.90334 8.537347,-1.876137 12.718301,-3.145441c0.38518,-0.144947 0.822844,-0.227198 1.141942,-0.493654c0.038666,-0.669883 -0.420553,-1.23602 -0.736206,-1.789851c-1.619644,-2.443943 -3.530428,-4.680217 -5.481944,-6.862601c-1.722811,-1.888157 -3.511994,-3.733863 -5.532702,-5.305721c-0.042278,-0.019553 -0.089569,-0.025797 -0.135744,-0.022807l0,0.000003zm-47.995776,-6.897603c-0.336039,0.095811 -0.341913,0.541986 -0.477954,0.808657c-0.911177,2.618089 -2.204381,5.084191 -3.613811,7.470664c-1.601769,2.646691 -3.513169,5.128091 -5.843243,7.191155c-3.577238,3.182683 -7.696695,5.659702 -11.549184,8.481121c-1.492025,1.028062 -2.794788,2.295856 -4.082447,3.562596c-0.981221,1.106691 -1.777936,2.436844 -2.065033,3.901882c-0.19449,1.497118 -0.163557,3.021092 0.007858,4.5187c0.416036,1.716228 1.432745,3.208697 2.464594,4.612539c2.204037,2.881265 4.743863,5.498671 7.470026,7.887753c1.291169,1.083747 2.597769,2.203849 4.142618,2.911081c1.351142,0.591476 2.83722,0.866616 4.310798,0.762233c1.791671,-0.120711 3.54453,-0.696354 5.109705,-1.566556c1.810401,-1.030232 3.251364,-2.721726 3.86932,-4.721733c0.476454,-1.428171 0.535932,-2.967196 0.361931,-4.452879c-0.282686,-1.839259 -1.113541,-3.599876 -2.437437,-4.918533c-1.132509,-1.184336 -2.589101,-1.975795 -3.939085,-2.878344c-0.66072,-0.42091 -1.340956,-0.811945 -2.046523,-1.152972c1.525064,0.051477 3.014797,-0.364747 4.491175,-0.691414c1.809253,-0.443447 3.595825,-0.998694 5.305015,-1.743562c-2.093582,1.086472 -4.254966,2.079956 -6.526548,2.753154c-0.294158,0.139914 -0.727948,0.185841 -0.864381,0.520364c0.021466,0.32027 0.392634,0.468082 0.588187,0.682591c1.380376,1.102969 2.780289,2.193607 4.284348,3.124118c0.476046,0.337307 1.085726,0.215606 1.584529,0.003506c1.452473,-0.577239 2.827287,-1.302216 4.347739,-1.688251c1.573845,-0.443333 3.244593,-0.664146 4.900679,-0.598892c2.207517,0.042026 4.386704,0.626012 6.411325,1.496571c2.535312,1.104768 4.83789,2.802057 6.539947,4.997945c0.338402,0.382135 0.610381,0.836901 0.982832,1.178729c0.259284,0.07149 0.440669,-0.246097 0.653423,-0.35574c2.488263,-1.946383 4.65849,-4.296256 6.451245,-6.894954c0.96588,-1.376058 1.678855,-2.910692 2.207503,-4.50296c0.386292,-1.124503 0.728729,-2.273565 0.878496,-3.454014c0.113541,-0.657537 0.575299,-1.218459 0.594283,-1.892927c-0.078483,-0.717709 -0.557771,-1.308375 -0.874556,-1.935398c-2.18018,-3.719031 -4.802404,-7.169621 -7.677557,-10.377048c-0.425884,-0.50954 -1.019728,-0.874726 -1.684025,-0.959403c-1.72121,-0.252989 -3.452513,-0.410464 -5.154896,-0.767427c-2.139312,-0.438729 -4.265898,-0.950661 -6.316022,-1.719728c-2.557447,-1.030129 -5.047999,-2.317078 -7.357893,-3.842697c-1.165019,-0.738349 -2.087859,-1.782315 -3.037933,-2.761186c-0.74712,-0.845405 -1.497076,-1.707142 -2.069912,-2.683203c-0.067122,-0.137919 -0.155599,-0.32162 -0.339127,-0.305536l-0.000008,0zm11.420491,20.455469c-0.548275,1.162135 -1.351396,2.181847 -2.145863,3.183453c0.752041,-1.044705 1.333008,-2.207072 2.153708,-3.202924l-0.007845,0.019471z" id="path3368"/>
   </g>
  </g>
 </g>
</svg>