<svg width="1800" height="283" xmlns="http://www.w3.org/2000/svg">
 <title>ClickHouse Logo</title>

 <g>
  <title>background</title>
  <rect fill="none" id="canvas_background" height="285" width="1802" y="-1" x="-1"/>
 </g>
 <g>
  <title>Layer 1</title>
  <g fill-rule="evenodd" fill="none" id="Page-1">
   <g stroke="null" fill-rule="nonzero" id="ClickHouse-Logo">
    <g stroke="null" id="logo">
     <polygon stroke="null" points="0,246.2403882741928 33.731145180368,246.2403882741928 33.731145180368,281.3461580276489 0,281.3461580276489 " fill="red" id="Path"/>
     <polygon stroke="null" points="0,0.5 33.731145180368,0.5 33.731145180368,246.2403882741928 0,246.2403882741928 " fill="#FC0" id="Path"/>
     <polygon stroke="null" points="67.45229963173824,0.5 101.18344481210625,0.5 101.18344481210625,281.3461580276489 67.45229963173824,281.3461580276489 " fill="#FC0" id="Path"/>
     <polygon stroke="null" points="134.90459926347648,0.5 168.63574920814062,0.5 168.63574920814062,281.3461580276489 134.90459926347648,281.3461580276489 " fill="#FC0" id="Path"/>
     <polygon stroke="null" points="202.35690365951086,0.5 236.08804407558273,0.5 236.08804407558273,281.3461580276489 202.35690365951086,281.3461580276489 " fill="#FC0" id="Path"/>
     <polygon stroke="null" points="269.80919852695297,114.59635069766409 303.54033894302484,114.59635069766409 303.54033894302484,167.24980732998483 269.80919852695297,167.24980732998483 " fill="#FC0" id="Path"/>
    </g>
    <g stroke="null" fill="#231F20" id="clickhouse-black">
     <path stroke="null" d="m530.094926,249.684394c-13.280839,0.181302 -26.471256,-2.26414 -38.848968,-7.202456c-11.540228,-4.766375 -21.963712,-11.986202 -30.583339,-21.183602c-9.044763,-9.349161 -16.083442,-20.533183 -20.664323,-32.834556c-9.942595,-28.85403 -9.942595,-60.328979 0,-89.18301c9.244692,-25.203862 28.692256,-45.062702 53.314094,-54.44182c12.749294,-4.892964 26.269329,-7.334557 39.882284,-7.202456c10.863907,-0.222493 21.707331,1.060142 32.236425,3.813059c8.564574,2.38428 16.872467,5.649064 24.797188,9.74453l-7.439136,23.937454c-7.022793,-4.855726 -14.583925,-8.837917 -22.524232,-11.862838c-9.51576,-3.281635 -19.512009,-4.858118 -29.550022,-4.660382c-18.617075,-0.18255 -36.372586,8.027519 -48.56126,22.454586c-6.60475,7.900723 -11.656928,17.036128 -14.878373,26.90319c-3.878882,11.80178 -5.765668,24.195417 -5.579427,36.647615c-0.159663,12.140043 1.584644,24.227558 5.166181,35.800292c2.985646,9.711556 7.833299,18.714132 14.258403,26.479528c5.981983,7.090013 13.477371,12.671467 21.904263,16.311337c9.028577,3.870164 18.731077,5.81622 28.516806,5.719588c8.913575,0.047536 17.775894,-1.383115 26.243751,-4.23672c8.08918,-2.870768 15.849542,-6.635355 23.144102,-11.227293l7.232513,18.005983c-6.99122,5.443423 -14.81103,9.666309 -23.144102,12.498382c-11.23379,3.949841 -23.047685,5.884663 -34.922827,5.719588l0,0z" id="Path"/>
     <polygon stroke="null" points="644.3702139147499,31.70512866973877 644.3702139147499,246.71886199355322 619.7811860686488,246.71886199355322 619.7811860686488,31.70512866973877 644.3702139147499,31.70512866973877 " id="Path"/>
     <path stroke="null" d="m697.476446,74.919655c-4.177027,0.306642 -8.282815,-1.231146 -11.283148,-4.225903c-3.000433,-2.99486 -4.609457,-7.161265 -4.421818,-11.449994c-0.149672,-4.286336 1.33236,-8.464391 4.132865,-11.650955c6.332483,-6.295843 16.398473,-6.295843 22.730856,0c2.894924,3.141108 4.455589,7.331437 4.339488,11.650955c0.121996,4.195113 -1.447762,8.256357 -4.339488,11.227397c-2.975155,2.975929 -7.004009,4.582057 -11.158755,4.448499l0,0zm12.398594,22.454586l0,148.285211l-24.383942,0l0,-148.285211l24.590565,0l-0.206623,0z" id="Shape"/>
     <path stroke="null" d="m814.230173,249.685226c-9.675224,0.046496 -19.274812,-1.749255 -28.310183,-5.296759c-8.633315,-3.320746 -16.45972,-8.524825 -22.937479,-15.252235c-6.631827,-6.992965 -11.831179,-15.276055 -15.291619,-24.361116c-7.521966,-21.065022 -7.521966,-44.180429 0,-65.245451c3.53098,-9.148616 8.879205,-17.444603 15.704966,-24.361116c6.86273,-6.900182 15.114671,-12.178218 24.177318,-15.464118c9.322425,-3.547503 19.192782,-5.34159 29.136776,-5.295822c7.863773,-0.05877 15.705265,0.866046 23.350725,2.753853c6.156034,1.438973 12.026612,3.946513 17.358052,7.414235l-7.852483,22.242808c-5.05028,-3.950881 -10.528094,-7.291702 -16.324836,-9.956308c-6.047527,-2.438993 -12.515594,-3.592126 -19.011238,-3.389397c-6.234267,-0.044727 -12.41518,1.179242 -18.184645,3.60128c-5.776459,2.454595 -10.934347,6.221054 -15.084996,11.01541c-4.493356,5.263993 -7.933713,11.381967 -10.125538,18.006087c-2.744352,8.173975 -4.073116,16.777021 -3.926241,25.420322c-1.00554,15.403684 3.887075,30.602454 13.638533,42.367203c9.881048,9.776879 23.274391,14.915947 36.989159,14.193029c11.961968,-0.283135 23.588322,-4.108883 33.476364,-11.015514l5.579327,18.641528c-5.545257,4.246082 -11.768333,7.471652 -18.391268,9.532647c-7.722594,2.725768 -15.806079,4.226007 -23.970695,4.449435l0,0z" id="Path"/>
     <path stroke="null" d="m911.559416,31.705129l0,215.01353l-25.003911,0l0,-215.01353l25.003911,0zm64.059603,215.01353l-60.753331,-79.650363l59.926738,-69.482172l25.623781,0l-59.306768,66.51654l63.439633,82.615994l-28.930053,0l0,0z" id="Shape"/>
     <polygon stroke="null" points="1163.0464803002105,155.2046277428244 1059.7249051394756,155.2046277428244 1059.7249051394756,246.51084288058337 1033.067715397803,246.51084288058337 1033.067715397803,40.598590539011184 1059.7249051394756,40.598590539011184 1059.7249051394756,134.66124740064242 1163.0464803002105,134.66124740064242 1163.0464803002105,40.598590539011184 1189.703670041883,40.598590539011184 1189.703670041883,246.71886199355322 1163.0464803002105,246.71886199355322 " id="Path"/>
     <path stroke="null" d="m1294.883615,249.684394c-9.202128,0.007593 -18.320728,-1.789822 -26.86372,-5.295926c-8.384528,-3.356008 -15.987824,-8.480098 -22.317509,-15.040352c-6.561987,-7.008464 -11.690899,-15.291241 -15.084996,-24.361116c-7.510775,-21.358246 -7.510775,-44.734632 0,-66.092879c3.37811,-9.015474 8.51052,-17.231992 15.084996,-24.149233c6.348869,-6.536226 13.94697,-11.65678 22.317509,-15.040456c8.542992,-3.506 17.661592,-5.303624 26.86372,-5.295926c9.268771,-0.003641 18.454314,1.793359 27.070344,5.295926c8.427991,3.390437 16.092434,8.508286 22.524232,15.040456c6.709461,6.889572 11.98235,15.105779 15.498243,24.149233c7.706807,21.322672 7.706807,44.770206 0,66.092879c-3.224042,9.010585 -8.138238,17.286705 -14.465026,24.361116c-6.409317,6.560566 -14.079856,11.682472 -22.524232,15.040352c-8.938654,3.636646 -18.487585,5.436037 -28.10356,5.295926zm0,-19.277072c5.78705,-0.024548 11.524042,-1.100397 16.944805,-3.177618c5.621591,-2.121429 10.656484,-5.610786 14.67175,-10.168087c4.608957,-5.294886 8.123751,-11.492225 10.332162,-18.217866c2.792012,-8.67357 4.119776,-17.771841 3.926241,-26.90319c0.218213,-9.133013 -1.11015,-18.235549 -3.926241,-26.90319c-2.233489,-6.650541 -5.747084,-12.773611 -10.332162,-18.006087c-4.015265,-4.557197 -9.050158,-8.046658 -14.67175,-10.168087c-5.420763,-2.077117 -11.157755,-3.152966 -16.944805,-3.177514c-5.653064,0.020075 -11.255272,1.09686 -16.531459,3.177514c-5.461628,2.202458 -10.344651,5.684742 -14.258403,10.168087c-4.548709,5.223218 -7.99596,11.353362 -10.125638,18.006087c-2.694795,8.692293 -3.952019,17.785571 -3.719518,26.90319c-0.209521,9.116266 1.047204,18.205592 3.719518,26.90319c2.1038,6.727826 5.552251,12.932445 10.125638,18.217866c3.908557,4.489378 8.793078,7.972702 14.258403,10.168087c5.276187,2.080654 10.878394,3.157439 16.531459,3.177618l0,0z" id="Shape"/>
     <path stroke="null" d="m1473.837136,240.999071c-9.567216,6.165301 -20.740159,9.195007 -32.029801,8.685323c-12.119433,0.509788 -23.915243,-4.082151 -32.649671,-12.710161c-9.090824,-10.747254 -13.561799,-24.802876 -12.398594,-38.977806l0,-100.622186l24.797188,0l0,100.622186c-0.117999,5.026106 0.580304,10.037338 2.066432,14.828469c1.126436,3.620835 3.114935,6.897062 5.786051,9.532647c2.44351,2.397282 5.42376,4.143001 8.679076,5.084044c3.493112,1.023736 7.112516,1.523226 10.745408,1.482868c9.386271,0.453098 18.642953,-2.386152 26.243751,-8.049779c7.083441,-5.714387 12.865994,-12.943575 16.944805,-21.183602l0,-102.316832l24.590665,0l0,148.285211l-21.69764,0l-2.273056,-26.691307l0,0c-4.124472,9.009025 -10.641697,16.6444 -18.804614,22.030925l0,0z" id="Path"/>
     <path stroke="null" d="m1595.756944,249.684394c-6.193002,0.404835 -12.404889,0.404835 -18.597891,0c-4.666608,-0.620566 -9.290753,-1.540285 -13.845157,-2.753853c-3.604417,-0.898188 -7.129601,-2.102706 -10.538785,-3.60128c-2.844567,-1.301462 -5.605405,-2.787242 -8.265729,-4.448499l8.059106,-21.183602c1.806655,1.517193 3.743198,2.864215 5.785951,4.024837c2.987744,1.717322 6.095985,3.204351 9.299045,4.448603c4.085106,1.64555 8.302997,2.921424 12.605217,3.813059c5.104234,1.027689 10.296692,1.524475 15.498243,1.482764c8.384728,0.587177 16.727591,-1.643886 23.764072,-6.355028c5.304063,-4.178159 8.307094,-10.729883 8.059106,-17.582426c0.230003,-5.801345 -2.220301,-11.374581 -6.612544,-15.040352c-6.950654,-4.937067 -14.724804,-8.526905 -22.937479,-10.591749l-17.771398,-6.14325c-5.365211,-1.960098 -10.441268,-4.668911 -15.084996,-8.049779c-4.413724,-3.242317 -8.081387,-7.436078 -10.745508,-12.286499c-2.93459,-5.739975 -4.359071,-12.165111 -4.132865,-18.641528c-0.781432,-12.201829 4.602663,-23.960338 14.258403,-31.13991c11.685804,-7.433166 25.326136,-10.984413 39.055691,-10.168191c8.675579,-0.139175 17.339268,0.713453 25.830504,2.542074c5.967495,1.270361 11.786218,3.187604 17.358052,5.719588l-5.786051,21.183602c-4.700779,-2.396554 -9.530148,-4.518295 -14.465026,-6.355132c-7.04897,-2.446586 -14.464926,-3.594103 -21.904263,-3.389293c-7.746274,-0.374149 -15.467869,1.150949 -22.524133,4.448499c-5.761971,3.200918 -9.098117,9.623766 -8.472453,16.311337c-0.060748,3.250326 0.879248,6.437618 2.686402,9.108985c1.868901,2.668039 4.262254,4.90503 7.02589,6.566911c3.257114,2.012003 6.72245,3.646215 10.332162,4.872265l12.398694,3.813059l16.738082,5.719588c5.335136,1.974348 10.350646,4.759302 14.878373,8.261558c9.8202,7.364722 15.340777,19.321071 14.67175,31.77535c0.330218,7.37346 -1.313277,14.699072 -4.752834,21.183602c-3.112637,5.580413 -7.42325,10.361455 -12.605217,13.98125c-5.460029,3.791527 -11.554216,6.520312 -17.978021,8.049779c-7.053067,1.008966 -14.198454,1.151157 -21.284393,0.423662z" id="Path"/>
     <path stroke="null" d="m1795.168265,233.796615c-6.130856,5.05263 -13.143757,8.862777 -20.664423,11.227397c-9.126693,3.099189 -18.696906,4.602965 -28.310183,4.448499c-19.918761,1.14398 -39.350539,-6.577001 -53.314094,-21.183602c-13.205504,-15.95175 -19.871002,-36.526643 -18.597891,-57.407555c-0.171653,-11.032573 1.57775,-22.008041 5.166081,-32.410895c3.137816,-9.005488 7.983771,-17.285041 14.258403,-24.361116c5.747084,-6.537995 12.793157,-11.738641 20.664323,-15.252235c8.391722,-3.529924 17.379833,-5.329524 26.450474,-5.295822c9.077935,-0.114835 18.081733,1.687885 26.450374,5.295822c7.681329,3.326987 14.378401,8.658591 19.424484,15.464014c5.376401,7.50525 8.91947,16.222194 10.332262,25.420322c1.911365,11.639721 1.911365,23.52513 0,35.164851l-98.362459,0c1.102057,35.447154 17.426893,53.170835 48.974606,53.170835c7.588209,0.159978 15.144145,-1.05931 22.317509,-3.60128c6.392332,-2.376479 12.494612,-5.504273 18.184645,-9.320764l7.02589,18.641528zm-53.520718,-121.5938c-10.040711,-0.099648 -19.679766,4.036695 -26.657097,11.439176c-8.271524,9.522037 -13.215395,21.596029 -14.05178,34.317424l73.771894,0c2.027765,-12.093964 -0.723281,-24.518078 -7.64586,-34.529307c-6.339677,-7.547064 -15.71206,-11.687049 -25.417158,-11.227293z" id="Shape"/>
    </g>
   </g>
  </g>
 </g>
</svg>